<svg width="66" height="66" viewBox="0 0 66 66" fill="none" xmlns="http://www.w3.org/2000/svg">
<rect x="0.0444027" y="0.0444027" width="65.9112" height="65.9112" rx="32.9556" fill="#FBFBFB"/>
<rect x="0.0444027" y="0.0444027" width="65.9112" height="65.9112" rx="32.9556" stroke="#A5A5A5" stroke-width="0.0888054"/>
<path d="M41.5495 35.8633L40.5662 34.3435C40.2631 33.8752 40.1019 33.3292 40.1019 32.7713V26.3878C40.1019 23.8397 40.2865 18.411 33.0115 18.411C27.0932 18.411 25.2631 21.5651 24.6973 23.5158C24.4726 24.2903 25.0005 25.0789 25.8027 25.1617L28.0966 25.3983C28.6365 25.454 29.1542 25.1674 29.3884 24.6778C29.8331 23.7477 30.6082 22.3626 33 22.3626C33.9265 22.3626 35.2295 22.7545 35.2295 23.9004C35.2295 25.563 35.2273 26.351 35.2273 26.351C35.2335 26.6979 34.9539 26.9826 34.6069 26.9826H32.3648C30.6731 26.9826 24.2446 27.8502 24.2446 34.2786C24.2446 40.7071 31.066 39.9674 31.5189 39.8613C32.3639 39.6632 33.9471 39.085 35.4349 37.6663C35.6849 37.4279 36.0837 37.4487 36.3009 37.7173L37.5023 39.2041C37.9693 39.7821 38.8284 39.8428 39.3722 39.3364L41.3471 37.497C41.8017 37.0735 41.8871 36.3849 41.5495 35.8633ZM31.688 35.505C29.4042 35.505 29.4693 33.4402 29.9963 32.46C30.4893 31.5428 31.792 29.9169 35.2893 29.8062L35.3199 31.5123C35.3427 32.7806 34.7593 33.9988 33.7219 34.7287C33.0791 35.1811 32.3778 35.505 31.688 35.505Z" fill="#170707"/>
<path d="M16.6362 41.9517C16.2889 41.6378 16.6668 41.082 17.0867 41.2888C20.0376 42.7425 25.593 44.9899 31.7338 44.9899C38.0093 44.9899 43.2592 43.4909 45.9015 42.5658C46.3311 42.4154 46.6407 42.9778 46.287 43.2644C44.1907 44.9623 39.6888 47.5889 31.8988 47.5889C24.1381 47.5889 19.097 44.1754 16.6362 41.9517Z" fill="#FFAC35"/>
<path d="M43.1357 41.0371C43.9543 40.431 45.9881 39.3861 49.0278 40.2997C49.3071 40.3836 49.4975 40.6421 49.4996 40.9337C49.507 41.9309 49.2921 44.2722 47.34 46.2178C47.2045 46.3529 46.9763 46.2203 47.0264 46.0356C47.3598 44.8079 48.0375 42.1747 47.8225 41.8073C47.576 41.3861 44.4954 41.366 43.2472 41.3753C43.0651 41.3768 42.9894 41.1454 43.1357 41.0371Z" fill="#FFAC35"/>
</svg>
