<svg width="32" height="24" viewBox="0 0 32 24" fill="none" xmlns="http://www.w3.org/2000/svg">
<path d="M16.8045 9.99241C16.8045 10.9138 16.242 11.4442 15.2509 11.4442H13.9492V8.54063H15.2563C16.242 8.54063 16.8045 9.06563 16.8045 9.99241ZM19.3492 13.346C19.3492 13.7906 19.7349 14.0799 20.3402 14.0799C21.1117 14.0799 21.6902 13.5924 21.6902 12.9067V12.4942L20.4313 12.5746C19.7188 12.6228 19.3492 12.8853 19.3492 13.346ZM31.4724 2.52455V21.3817C31.4724 22.8013 30.3206 23.9531 28.9009 23.9531H3.18666C1.76702 23.9531 0.615234 22.8013 0.615234 21.3817V2.52455C0.615234 1.10491 1.76702 -0.046875 3.18666 -0.046875H28.9009C30.3206 -0.046875 31.4724 1.10491 31.4724 2.52455ZM7.46166 8.8567C7.91166 8.8942 8.36166 8.6317 8.64559 8.29955C8.92416 7.9567 9.10631 7.49598 9.05809 7.02991C8.66166 7.04598 8.16881 7.29241 7.88488 7.63527C7.62773 7.92991 7.40809 8.4067 7.46166 8.8567ZM10.7081 12.8478C10.6974 12.8371 9.65809 12.4406 9.64738 11.2406C9.63666 10.2388 10.467 9.7567 10.5045 9.72991C10.0331 9.03348 9.30452 8.95848 9.05273 8.94241C8.39916 8.90491 7.84202 9.31205 7.53131 9.31205C7.21523 9.31205 6.74381 8.95848 6.22952 8.9692C5.55988 8.97991 4.93309 9.36027 4.59559 9.96562C3.89381 11.1763 4.41345 12.9656 5.09381 13.9513C5.42595 14.4388 5.82773 14.9746 6.35273 14.9531C6.85095 14.9317 7.04916 14.6317 7.64916 14.6317C8.25452 14.6317 8.42595 14.9531 8.95095 14.9478C9.49738 14.9371 9.83488 14.4603 10.1724 13.9728C10.542 13.4156 10.6974 12.8799 10.7081 12.8478ZM17.9617 9.98705C17.9617 8.56205 16.9706 7.58705 15.5563 7.58705H12.8134V14.8942H13.9492V12.3978H15.5188C16.9545 12.3978 17.9617 11.4121 17.9617 9.98705ZM22.7831 11.2567C22.7831 10.2013 21.9367 9.52098 20.6402 9.52098C19.4349 9.52098 18.5456 10.2121 18.5134 11.1549H19.5367C19.6224 10.7049 20.0402 10.4103 20.6081 10.4103C21.3045 10.4103 21.6902 10.7317 21.6902 11.3317V11.7335L20.2759 11.8192C18.9581 11.8996 18.2456 12.4406 18.2456 13.3781C18.2456 14.3263 18.9795 14.9531 20.0349 14.9531C20.7474 14.9531 21.4063 14.5942 21.7063 14.021H21.7277V14.8996H22.7777V11.2567H22.7831ZM28.2581 9.59062H27.1063L25.7724 13.9085H25.7509L24.417 9.59062H23.2224L25.1456 14.9103L25.0438 15.2317C24.8724 15.7781 24.5884 15.9924 24.0849 15.9924C23.9938 15.9924 23.8224 15.9817 23.7527 15.9763V16.8549C23.817 16.8763 24.1009 16.8817 24.1867 16.8817C25.2956 16.8817 25.8152 16.4585 26.2706 15.1781L28.2581 9.59062Z" fill="#170707"/>
</svg>
