<svg width="166" height="48" viewBox="0 0 166 48" fill="none" xmlns="http://www.w3.org/2000/svg">
<path d="M12.2024 28.0482L15.8458 15.441C17.9277 8.09638 18.0434 5.20482 18.0434 5.20482C18.0434 5.20482 19.3735 4.6265 21.3398 4.6265C24.8675 4.6265 26.0819 5.78313 26.2554 10.0048L27.4699 38.4L40.1349 11.9711C41.9855 8.15422 42.3904 6.53494 42.6217 5.20482C42.6217 5.20482 43.547 4.6265 45.9181 4.6265C50.1976 4.6265 51.0072 6.53494 50.2554 10.9301L45.5132 38.1687C44.9349 41.5229 46.1494 42.9687 48.1157 42.9687C50.9494 42.9687 53.3783 39.5566 54.1879 37.9374C55.0554 37.9374 55.4024 38.5157 55.2867 39.441C54.7663 42.9687 50.1398 48 44.8193 48C40.7132 48 37.8795 45.2241 37.8795 40.8289C37.8795 38.1687 38.1687 35.8554 38.6891 32.7904L41.6385 15.9614L29.5518 41.4651C28.0482 44.6458 27.5855 47.1325 27.5855 47.1325C27.5855 47.1325 26.2554 48 23.9422 48C20.8193 48 20.1831 45.7446 20.0096 42.159L18.853 15.7301L13.1277 36.9542C10.9301 45.1663 8.09638 48 4.27952 48C1.67711 48 0 46.2072 0 43.547C0 41.5229 0.809639 40.6554 0.809639 40.6554C0.809639 40.6554 1.44578 41.1181 2.83373 41.1181C6.59277 41.1181 9.13735 38.6892 12.2024 28.0482Z" fill="#170707"/>
<path d="M54.1432 35.2771L55.9938 24.5783C56.63 20.8771 56.0516 19.6048 56.0516 19.6048C56.0516 19.6048 56.9191 19.0843 59.0589 19.0843C63.5119 19.0843 64.0324 20.7614 63.3384 24.8096L61.083 37.8795C60.5047 41.3494 61.4878 42.9687 63.5697 42.9687C65.536 42.9687 68.1384 41.0602 69.642 37.9374C70.3938 37.9374 70.9143 38.4 70.7408 39.441C70.1625 42.506 65.9986 48 60.389 48C56.3986 48 53.6227 45.3976 53.6227 40.7711C53.6227 39.6145 53.7384 37.5904 54.1432 35.2771Z" fill="#170707"/>
<path d="M69.5611 35.2771L74.8238 5.49398C75.4599 1.8506 74.8816 0.520482 74.8816 0.520482C74.8816 0.520482 75.7491 0 77.8888 0C82.3419 0 82.8623 1.67711 82.1684 5.7253L76.5009 37.8795C75.9226 41.2916 76.9057 42.9687 78.9876 42.9687C81.3009 42.9687 83.9033 41.0602 85.4069 37.9374C86.1587 37.9374 86.6792 38.4 86.5057 39.441C85.9274 42.506 81.4165 48 75.8069 48C71.8166 48 69.0406 45.3976 69.0406 40.7711C69.0406 39.6145 69.1563 37.5904 69.5611 35.2771Z" fill="#170707"/>
<path d="M85.3744 35.2771L90.637 5.49398C91.2732 1.8506 90.6949 0.520482 90.6949 0.520482C90.6949 0.520482 91.5623 0 93.7021 0C98.1551 0 98.6756 1.67711 97.9816 5.7253L92.3141 37.8795C91.7358 41.2916 92.719 42.9687 94.8009 42.9687C97.1141 42.9687 99.7166 41.0602 101.22 37.9374C101.972 37.9374 102.492 38.4 102.319 39.441C101.741 42.506 97.2298 48 91.6202 48C87.6298 48 84.8539 45.3976 84.8539 40.7711C84.8539 39.6145 84.9696 37.5904 85.3744 35.2771Z" fill="#170707"/>
<path d="M101.188 35.2771L103.038 24.5783C103.674 20.8771 103.096 19.6048 103.096 19.6048C103.096 19.6048 103.964 19.0843 106.103 19.0843C110.556 19.0843 111.077 20.7614 110.383 24.8096L108.127 37.8795C107.549 41.3494 108.532 42.9687 110.614 42.9687C112.58 42.9687 115.183 41.0602 116.686 37.9374C117.438 37.9374 117.959 38.4 117.785 39.441C117.207 42.506 113.043 48 107.433 48C103.443 48 100.667 45.3976 100.667 40.7711C100.667 39.6145 100.783 37.5904 101.188 35.2771Z" fill="#170707"/>
<path d="M128.577 48C121.001 48 115.507 43.3157 115.507 35.5084C115.507 25.2723 123.314 19.0843 131.006 19.0843C136.904 19.0843 139.275 22.1494 139.275 25.0988C139.275 30.3614 133.203 33.8313 123.025 35.7398C123.372 40.0771 126.379 43.4313 131.295 43.4313C137.483 43.4313 141.01 40.3663 142.572 37.9374C143.324 37.9374 143.728 38.4 143.497 39.441C142.977 41.9855 137.425 48 128.577 48ZM131.063 21.9759C127.767 21.9759 123.719 25.7928 123.083 33.0217C130.138 31.3446 133.087 27.8169 133.087 24C133.087 22.7855 132.278 21.9759 131.063 21.9759Z" fill="#170707"/>
<path d="M152.529 29.2627L157.502 31.8651C161.724 34.0626 163.228 36.4337 163.228 39.4988C163.228 44.0675 159.353 48 150.967 48C143.565 48 140.442 44.1831 140.442 41.1759C140.442 38.9783 142.235 37.706 144.259 37.706C146.225 37.706 147.035 38.5157 147.035 38.5157C147.035 38.5157 146.746 39.1518 146.746 40.1928C146.746 43.0265 148.249 45.0506 151.546 45.1084C154.842 45.1084 156.403 43.3735 156.403 41.4651C156.403 40.0771 155.652 38.9205 153.57 37.8217L147.902 34.8145C145.126 33.3108 142.871 31.4602 142.871 27.5855C142.871 22.9012 146.919 19.0843 155.131 19.0843C162.302 19.0843 165.656 22.9012 165.656 25.9084C165.656 28.106 163.864 29.3783 161.84 29.3783C159.873 29.3783 159.064 28.5687 159.064 28.5687C159.064 28.5687 159.353 27.9325 159.353 26.8916C159.353 24.1735 157.676 21.9759 154.437 21.9759C151.256 21.9759 149.695 23.5952 149.695 25.6193C149.695 27.2964 150.62 28.2795 152.529 29.2627Z" fill="#170707"/>
<path d="M65.6283 7.82636C64.3377 6.73084 62.812 8.23088 61.8626 9.35104C60.6492 8.27569 58.4702 6.7844 57.3028 8.99202C56.079 11.3063 59.772 14.7126 62.1678 15.6018C65.2921 13.5342 67.5813 9.48416 65.6283 7.82636Z" fill="#170707"/>
<path d="M111.628 7.82636C110.338 6.73084 108.812 8.23088 107.863 9.35104C106.649 8.27569 104.47 6.7844 103.303 8.99202C102.079 11.3063 105.772 14.7126 108.168 15.6018C111.292 13.5342 113.581 9.48416 111.628 7.82636Z" fill="#170707"/>
</svg>
