<svg width="32" height="32" viewBox="0 0 32 32" fill="none" xmlns="http://www.w3.org/2000/svg">
<path d="M16.1258 20.9674C15.1446 20.9674 14.1855 20.6764 13.3697 20.1313C12.5539 19.5862 11.918 18.8114 11.5425 17.9049C11.1671 16.9985 11.0688 16.001 11.2602 15.0387C11.4517 14.0764 11.9241 13.1924 12.6179 12.4986C13.3117 11.8048 14.1957 11.3324 15.158 11.1409C16.1203 10.9495 17.1177 11.0478 18.0242 11.4232C18.9307 11.7987 19.7055 12.4346 20.2506 13.2504C20.7957 14.0662 21.0866 15.0253 21.0866 16.0065C21.0852 17.3217 20.562 18.5827 19.632 19.5127C18.702 20.4427 17.441 20.9659 16.1258 20.9674ZM16.1258 11.9105C15.3157 11.9105 14.5238 12.1507 13.8502 12.6008C13.1766 13.0509 12.6516 13.6906 12.3416 14.439C12.0316 15.1875 11.9504 16.011 12.1085 16.8056C12.2665 17.6001 12.6566 18.33 13.2295 18.9028C13.8023 19.4756 14.5321 19.8657 15.3267 20.0238C16.1212 20.1818 16.9448 20.1007 17.6933 19.7907C18.4417 19.4807 19.0814 18.9557 19.5315 18.2821C19.9816 17.6085 20.2218 16.8166 20.2218 16.0065C20.2205 14.9206 19.7886 13.8794 19.0207 13.1116C18.2528 12.3437 17.2117 11.9117 16.1258 11.9105Z" fill="#170707"/>
<path d="M20.6322 16.0324C20.5227 16.0328 20.4171 15.9915 20.3369 15.9171C20.2566 15.8426 20.2075 15.7404 20.1996 15.6312C20.1917 15.522 20.2255 15.4138 20.2943 15.3286C20.363 15.2433 20.4615 15.1873 20.5699 15.1719L26.1072 14.3568C26.2191 14.3433 26.3318 14.3741 26.4214 14.4425C26.5109 14.511 26.5702 14.6117 26.5866 14.7232C26.603 14.8347 26.5752 14.9481 26.5092 15.0395C26.4432 15.1308 26.3441 15.1927 26.2331 15.2121L20.6979 16.0259C20.6762 16.0297 20.6542 16.0319 20.6322 16.0324Z" fill="#170707"/>
<path d="M25.8551 24.5103C25.7623 24.5098 25.6721 24.4795 25.5978 24.4238L19.0422 19.5723C18.95 19.504 18.8888 19.4019 18.8719 19.2885C18.855 19.175 18.8839 19.0595 18.9522 18.9674C19.0205 18.8752 19.1226 18.814 19.2361 18.7971C19.3495 18.7802 19.465 18.8091 19.5572 18.8774L26.1129 23.7302C26.1855 23.7846 26.2391 23.8605 26.2662 23.9472C26.2932 24.0338 26.2923 24.1268 26.2636 24.2129C26.2349 24.299 26.1799 24.3739 26.1062 24.4269C26.0326 24.48 25.9442 24.5085 25.8534 24.5085L25.8551 24.5103Z" fill="#170707"/>
<path d="M11.7349 27.5459C11.6635 27.5459 11.5931 27.5282 11.5301 27.4944C11.4672 27.4605 11.4136 27.4116 11.3742 27.3519C11.3347 27.2923 11.3107 27.2238 11.3043 27.1526C11.2978 27.0814 11.3091 27.0098 11.3371 26.944L14.2435 20.1137C14.265 20.0605 14.2969 20.012 14.3374 19.9712C14.3779 19.9305 14.426 19.8982 14.4791 19.8762C14.5322 19.8543 14.5891 19.8431 14.6466 19.8434C14.704 19.8437 14.7608 19.8554 14.8137 19.8779C14.8666 19.9004 14.9144 19.9332 14.9545 19.9744C14.9945 20.0156 15.0259 20.0643 15.0469 20.1178C15.0679 20.1713 15.078 20.2284 15.0767 20.2859C15.0754 20.3433 15.0626 20.3999 15.0392 20.4523L12.1332 27.2847C12.0997 27.3625 12.0441 27.4287 11.9733 27.4751C11.9025 27.5215 11.8196 27.5462 11.7349 27.5459Z" fill="#170707"/>
<path d="M6.13276 18.7836C6.02729 18.7834 5.92549 18.7448 5.84653 18.6749C5.76757 18.6049 5.71689 18.5085 5.70403 18.4039C5.69117 18.2992 5.71702 18.1934 5.7767 18.1064C5.83639 18.0195 5.9258 17.9573 6.02811 17.9317L11.5892 16.5384C11.7005 16.5104 11.8183 16.5279 11.9168 16.5868C12.0152 16.6458 12.0862 16.7414 12.1142 16.8527C12.1421 16.9641 12.1247 17.0819 12.0657 17.1803C12.0067 17.2788 11.9111 17.3498 11.7998 17.3777L6.23828 18.7706C6.20376 18.7792 6.16833 18.7835 6.13276 18.7836Z" fill="#170707"/>
<path d="M12.6586 13.5209C12.5678 13.5209 12.4793 13.4923 12.4056 13.4391L8.49126 10.6128C8.44417 10.5799 8.4041 10.5381 8.37337 10.4896C8.34263 10.4411 8.32186 10.387 8.31225 10.3304C8.30265 10.2738 8.3044 10.2159 8.31741 10.16C8.33043 10.1041 8.35444 10.0513 8.38805 10.0048C8.42166 9.95829 8.4642 9.91892 8.51318 9.889C8.56216 9.85908 8.61661 9.83922 8.67335 9.83056C8.73009 9.8219 8.78798 9.82462 8.84366 9.83857C8.89933 9.85251 8.95168 9.8774 8.99763 9.91179L12.912 12.7382C12.986 12.7917 13.0412 12.8674 13.0695 12.9542C13.0979 13.0411 13.098 13.1347 13.0698 13.2216C13.0417 13.3086 12.9867 13.3843 12.9129 13.4381C12.839 13.4919 12.75 13.5208 12.6586 13.5209Z" fill="#170707"/>
<path d="M16.7883 11.958C16.7222 11.9581 16.657 11.9429 16.5976 11.9138C16.5383 11.8847 16.4865 11.8424 16.446 11.7901C16.4056 11.7378 16.3777 11.677 16.3645 11.6123C16.3512 11.5475 16.353 11.4806 16.3697 11.4166L17.9074 5.51481C17.938 5.40599 18.0101 5.3135 18.1081 5.25715C18.2061 5.20081 18.3223 5.18508 18.4318 5.21335C18.5412 5.24163 18.6353 5.31164 18.6937 5.4084C18.7522 5.50516 18.7705 5.62097 18.7446 5.73102L17.2069 11.6346C17.1827 11.7272 17.1285 11.8093 17.0528 11.8678C16.977 11.9263 16.884 11.9581 16.7883 11.958Z" fill="#170707"/>
<path d="M6.39182 11.9105C5.73504 11.9105 5.09301 11.7157 4.54692 11.3508C4.00083 10.9859 3.57522 10.4673 3.3239 9.8605C3.07258 9.25371 3.00684 8.58601 3.13501 7.94186C3.26317 7.29771 3.57947 6.70602 4.04392 6.24164C4.50836 5.77726 5.10008 5.46103 5.74426 5.33295C6.38843 5.20487 7.05611 5.27069 7.66287 5.52209C8.26964 5.77349 8.78822 6.19917 9.15305 6.74531C9.51787 7.29144 9.71255 7.9335 9.71247 8.59028C9.71144 9.47061 9.36124 10.3146 8.73871 10.937C8.11617 11.5595 7.27215 11.9096 6.39182 11.9105ZM6.39182 6.13449C5.90611 6.13449 5.43131 6.27852 5.02746 6.54837C4.62361 6.81821 4.30884 7.20175 4.12297 7.65049C3.9371 8.09923 3.88846 8.593 3.98322 9.06938C4.07798 9.54575 4.31187 9.98333 4.65532 10.3268C4.99876 10.6702 5.43634 10.9041 5.91272 10.9989C6.38909 11.0936 6.88287 11.045 7.33161 10.8591C7.78034 10.6733 8.16388 10.3585 8.43373 9.95464C8.70357 9.55079 8.8476 9.07599 8.8476 8.59028C8.84691 7.93917 8.58796 7.31494 8.12756 6.85454C7.66716 6.39414 7.04292 6.13518 6.39182 6.13449Z" fill="#170707"/>
<path d="M18.9137 6.13449C18.3926 6.13449 17.8832 5.97996 17.4499 5.69045C17.0166 5.40093 16.6789 4.98943 16.4795 4.50798C16.2801 4.02653 16.2279 3.49676 16.3296 2.98565C16.4312 2.47455 16.6822 2.00507 17.0507 1.63659C17.4191 1.2681 17.8886 1.01716 18.3997 0.915496C18.9108 0.813832 19.4406 0.86601 19.922 1.06543C20.4035 1.26486 20.815 1.60257 21.1045 2.03586C21.394 2.46915 21.5486 2.97856 21.5486 3.49968C21.5478 4.19823 21.2699 4.86794 20.776 5.36189C20.282 5.85584 19.6123 6.13369 18.9137 6.13449ZM18.9137 1.72973C18.5637 1.72973 18.2215 1.83354 17.9304 2.02802C17.6393 2.22251 17.4125 2.49894 17.2785 2.82235C17.1446 3.14577 17.1095 3.50164 17.1778 3.84498C17.2461 4.18832 17.4147 4.50369 17.6622 4.75122C17.9097 4.99875 18.2251 5.16732 18.5684 5.23562C18.9118 5.30391 19.2677 5.26886 19.5911 5.1349C19.9145 5.00093 20.1909 4.77408 20.3854 4.48301C20.5799 4.19194 20.6837 3.84974 20.6837 3.49968C20.6829 3.03051 20.4962 2.58078 20.1644 2.24902C19.8326 1.91727 19.3829 1.73053 18.9137 1.72973Z" fill="#170707"/>
<path d="M27.8365 16.6244C27.4159 16.6244 27.0048 16.4997 26.6552 16.2661C26.3055 16.0325 26.033 15.7004 25.8721 15.3118C25.7111 14.9233 25.669 14.4958 25.7511 14.0833C25.8331 13.6709 26.0356 13.292 26.333 12.9947C26.6303 12.6973 27.0092 12.4948 27.4217 12.4127C27.8341 12.3307 28.2616 12.3728 28.6502 12.5337C29.0387 12.6947 29.3708 12.9672 29.6044 13.3169C29.838 13.6665 29.9627 14.0776 29.9627 14.4982C29.9622 15.0619 29.738 15.6024 29.3393 16.001C28.9407 16.3997 28.4002 16.6239 27.8365 16.6244ZM27.8365 13.2372C27.587 13.2372 27.3431 13.3112 27.1356 13.4498C26.9282 13.5884 26.7665 13.7855 26.671 14.016C26.5756 14.2465 26.5506 14.5001 26.5993 14.7448C26.648 14.9895 26.7682 15.2143 26.9447 15.3907C27.1211 15.5671 27.3459 15.6872 27.5907 15.7358C27.8354 15.7844 28.089 15.7594 28.3195 15.6639C28.55 15.5683 28.747 15.4066 28.8855 15.1991C29.0241 14.9916 29.098 14.7477 29.0979 14.4982C29.0974 14.1638 28.9644 13.8433 28.7279 13.6069C28.4914 13.3705 28.1708 13.2375 27.8365 13.2372Z" fill="#170707"/>
<path d="M27.77 28.2871C27.0775 28.2853 26.4101 28.0279 25.8957 27.5644C25.3813 27.1008 25.0561 26.4637 24.9825 25.7751C24.9238 25.2115 25.0373 24.6433 25.308 24.1454C25.5788 23.6476 25.9941 23.2436 26.4992 22.9866C27.0043 22.7296 27.5755 22.6319 28.1373 22.7061C28.6991 22.7804 29.2252 23.0232 29.6462 23.4026C30.0672 23.782 30.3633 24.2801 30.4954 24.8312C30.6275 25.3823 30.5894 25.9605 30.3862 26.4895C30.183 27.0185 29.8242 27.4735 29.3571 27.7944C28.8901 28.1153 28.3367 28.2871 27.77 28.2871ZM27.7734 23.5425C27.7053 23.5425 27.6371 23.5461 27.5693 23.5533C27.0577 23.6076 26.5885 23.8627 26.2648 24.2627C25.9411 24.6627 25.7894 25.1748 25.8431 25.6865C25.8822 26.0594 26.0286 26.4131 26.2645 26.7045C26.5004 26.996 26.8158 27.2129 27.1724 27.3289C27.529 27.4449 27.9116 27.455 28.2738 27.3581C28.6361 27.2611 28.9625 27.0613 29.2135 26.7827C29.4645 26.5041 29.6294 26.1587 29.6882 25.7884C29.7471 25.418 29.6973 25.0386 29.5449 24.6959C29.3925 24.3533 29.1441 24.0621 28.8297 23.8577C28.5153 23.6533 28.1484 23.5444 27.7734 23.5442V23.5425Z" fill="#170707"/>
<path d="M11.2769 31.1351C10.8306 31.1349 10.3944 31.0023 10.0234 30.7541C9.65247 30.506 9.3634 30.1534 9.19278 29.741C9.02217 29.3286 8.97766 28.8749 9.06489 28.4372C9.15211 27.9995 9.36716 27.5975 9.68284 27.282C9.99852 26.9665 10.4007 26.7516 10.8384 26.6647C11.2762 26.5777 11.7299 26.6225 12.1422 26.7933C12.5545 26.9642 12.9069 27.2534 13.1548 27.6246C13.4028 27.9957 13.5351 28.432 13.5351 28.8783C13.5344 29.4768 13.2962 30.0507 12.8729 30.4738C12.4495 30.8969 11.8755 31.1348 11.2769 31.1351ZM11.2769 27.4863C11.0017 27.4865 10.7327 27.5684 10.5039 27.7215C10.2752 27.8746 10.097 28.0921 9.99182 28.3465C9.88666 28.6008 9.85928 28.8807 9.91313 29.1506C9.96699 29.4206 10.0997 29.6685 10.2944 29.863C10.4891 30.0576 10.7372 30.19 11.0071 30.2436C11.2771 30.2972 11.5569 30.2696 11.8112 30.1642C12.0655 30.0588 12.2828 29.8804 12.4357 29.6515C12.5886 29.4226 12.6702 29.1535 12.6702 28.8783C12.6698 28.509 12.5228 28.155 12.2616 27.894C12.0003 27.633 11.6462 27.4864 11.2769 27.4863Z" fill="#170707"/>
<path d="M4.05791 21.7042C3.53675 21.7042 3.02731 21.5497 2.594 21.2601C2.16068 20.9706 1.82297 20.559 1.62358 20.0775C1.42418 19.596 1.37205 19.0662 1.47379 18.5551C1.57552 18.0439 1.82655 17.5745 2.19512 17.206C2.56369 16.8376 3.03325 16.5867 3.54441 16.4851C4.05557 16.3836 4.58537 16.4359 5.06681 16.6354C5.54824 16.835 5.95968 17.1728 6.24909 17.6062C6.53851 18.0396 6.69289 18.5491 6.69272 19.0703C6.69169 19.7687 6.41373 20.4382 5.91981 20.9319C5.42589 21.4257 4.75631 21.7034 4.05791 21.7042ZM4.05791 17.2999C3.70786 17.2999 3.36568 17.4037 3.07462 17.5982C2.78357 17.7926 2.55671 18.069 2.42273 18.3924C2.28876 18.7158 2.25368 19.0717 2.32194 19.415C2.3902 19.7583 2.55873 20.0737 2.80621 20.3212C3.0537 20.5688 3.36904 20.7374 3.71234 20.8057C4.05565 20.8741 4.41151 20.8391 4.73494 20.7052C5.05836 20.5713 5.33482 20.3445 5.52935 20.0535C5.72389 19.7625 5.82777 19.4203 5.82785 19.0703C5.82717 18.601 5.64048 18.1512 5.30872 17.8193C4.97695 17.4875 4.52716 17.3007 4.05791 17.2999Z" fill="#170707"/>
</svg>
