<svg width="16" height="16" viewBox="0 0 16 16" fill="none" xmlns="http://www.w3.org/2000/svg">
<path d="M6.66736 5.33332V4.66666M6.66736 8.33332V7.66666M6.66736 11.3333V10.6667M3.46733 2.66666H12.5341C13.2808 2.66666 13.6542 2.66666 13.9394 2.81198C14.1903 2.93981 14.3943 3.14379 14.5221 3.39467C14.6674 3.67988 14.6674 4.05325 14.6674 4.79999V5.66666C13.3787 5.66666 12.3341 6.71133 12.3341 7.99999C12.3341 9.28866 13.3787 10.3333 14.6674 10.3333V11.2C14.6674 11.9467 14.6674 12.3201 14.5221 12.6053C14.3943 12.8562 14.1903 13.0602 13.9394 13.188C13.6542 13.3333 13.2808 13.3333 12.5341 13.3333H3.46734C2.72059 13.3333 2.34722 13.3333 2.062 13.188C1.81112 13.0602 1.60714 12.8562 1.47931 12.6053C1.33398 12.3201 1.33398 11.9467 1.33398 11.2V10.3333C2.62266 10.3333 3.66734 9.28866 3.66734 7.99999C3.66734 6.71133 2.62266 5.66666 1.33398 5.66666V4.79999C1.33398 4.05325 1.33398 3.67988 1.47931 3.39467C1.60714 3.14379 1.81112 2.93981 2.062 2.81198C2.34722 2.66666 2.72059 2.66666 3.46733 2.66666Z" stroke="#505050" stroke-linecap="round" stroke-linejoin="round"/>
</svg>
