<svg width="32" height="32" viewBox="0 0 32 32" fill="none" xmlns="http://www.w3.org/2000/svg">
<path d="M11.625 27.75H20.375" stroke="#170707" stroke-width="0.9375" stroke-miterlimit="10"/>
<path d="M11.5 25.875H20.5" stroke="#170707" stroke-width="0.9375" stroke-miterlimit="10"/>
<path d="M11 24H21" stroke="#170707" stroke-width="0.9375" stroke-miterlimit="10"/>
<path d="M18.8125 29.625V30.25C18.8125 30.9404 18.2529 31.5 17.5625 31.5H14.4375C13.7471 31.5 13.1875 30.9404 13.1875 30.25V29.625" stroke="#170707" stroke-width="0.9375" stroke-miterlimit="10"/>
<path d="M4.125 12.375C4.125 5.81663 9.44163 0.5 16 0.5C22.5584 0.5 27.875 5.81663 27.875 12.375C27.875 16.4955 25.7762 20.1257 22.5894 22.2553C21.2039 23.1811 20.375 24.7403 20.375 26.4069V28.375C20.375 29.0654 19.8154 29.625 19.125 29.625H12.875C12.1846 29.625 11.625 29.0654 11.625 28.375V26.4069C11.625 24.7404 10.7961 23.1812 9.41056 22.2553C6.22375 20.1257 4.125 16.4955 4.125 12.375Z" stroke="#170707" stroke-width="0.9375" stroke-miterlimit="10" stroke-dasharray="19.75 0.94"/>
<path d="M0 12.5625H2.375" stroke="#170707" stroke-width="0.9375" stroke-miterlimit="10"/>
<path d="M29.625 12.5625H32" stroke="#170707" stroke-width="0.9375" stroke-miterlimit="10"/>
<path d="M0.964966 18.0348L3.19672 17.2225" stroke="#170707" stroke-width="0.9375" stroke-miterlimit="10"/>
<path d="M28.8033 7.90249L31.0351 7.09018" stroke="#170707" stroke-width="0.9375" stroke-miterlimit="10"/>
<path d="M3.74329 22.8471L5.5626 21.3205" stroke="#170707" stroke-width="0.9375" stroke-miterlimit="10"/>
<path d="M26.4374 3.80452L28.2567 2.27789" stroke="#170707" stroke-width="0.9375" stroke-miterlimit="10"/>
<path d="M31.0351 18.0348L28.8033 17.2225" stroke="#170707" stroke-width="0.9375" stroke-miterlimit="10"/>
<path d="M3.19672 7.90249L0.964966 7.09018" stroke="#170707" stroke-width="0.9375" stroke-miterlimit="10"/>
<path d="M28.2567 22.8471L26.4374 21.3205" stroke="#170707" stroke-width="0.9375" stroke-miterlimit="10"/>
<path d="M5.5626 3.80452L3.74329 2.27789" stroke="#170707" stroke-width="0.9375" stroke-miterlimit="10"/>
<path d="M22.3621 12.6096C23.0436 12.1947 23.5 11.4484 23.5 10.5938C23.5 9.40131 22.6134 8.41794 21.4625 8.25694C21.4999 8.12256 21.5263 7.98375 21.5263 7.8375C21.5263 6.96763 20.8194 6.2625 19.9474 6.2625C19.9019 6.2625 19.8591 6.27206 19.8146 6.27581C19.493 5.35188 18.6148 4.6875 17.5789 4.6875C16.9715 4.6875 16.4193 4.91756 16 5.29262C15.5807 4.91762 15.0285 4.6875 14.4211 4.6875C13.3852 4.6875 12.5071 5.35188 12.1854 6.27581C12.1409 6.27206 12.0981 6.2625 12.0526 6.2625C11.1806 6.2625 10.4737 6.96763 10.4737 7.8375C10.4737 7.98375 10.5001 8.12256 10.5375 8.25694C9.38656 8.41787 8.5 9.40125 8.5 10.5938C8.5 11.4484 8.95644 12.1947 9.63787 12.6096C9.18825 12.9704 8.89475 13.5171 8.89475 14.1375C8.89475 14.9012 9.33537 15.556 9.97262 15.8824C9.79344 16.1789 9.68419 16.5224 9.68419 16.8937C9.68419 17.9361 10.4988 18.7805 11.5262 18.8493C11.9673 19.7868 12.9194 20.4375 14.0263 20.4375C14.7999 20.4375 15.4984 20.1195 16 19.6084C16.5016 20.1195 17.2001 20.4375 17.9737 20.4375C19.0806 20.4375 20.0327 19.7868 20.4737 18.8493C21.5012 18.7805 22.3158 17.9361 22.3158 16.8937C22.3158 16.5224 22.2066 16.1789 22.0274 15.8824C22.6646 15.556 23.1052 14.9012 23.1052 14.1375C23.1052 13.5171 22.8118 12.9704 22.3621 12.6096Z" stroke="#170707" stroke-width="0.9375" stroke-miterlimit="10"/>
<path d="M16 5.29263V19.6084" stroke="#170707" stroke-width="0.9375" stroke-miterlimit="10"/>
<path d="M10.5375 8.25692C10.5375 8.25692 11.7812 8.06249 12.5312 9.37499" stroke="#170707" stroke-width="0.9375" stroke-miterlimit="10"/>
<path d="M21.4625 8.25692C21.4625 8.25692 20.2188 8.06249 19.4688 9.37499" stroke="#170707" stroke-width="0.9375" stroke-miterlimit="10"/>
<path d="M11.5262 18.8493C11.5262 18.8493 13.2812 18.9375 13.0937 16.9688" stroke="#170707" stroke-width="0.9375" stroke-miterlimit="10"/>
<path d="M9.63794 12.6096C9.63794 12.6096 11.2188 11.5312 12.3438 13.6875" stroke="#170707" stroke-width="0.9375" stroke-miterlimit="10"/>
<path d="M20.4737 18.8493C20.4737 18.8493 18.7187 18.9375 18.9062 16.9688" stroke="#170707" stroke-width="0.9375" stroke-miterlimit="10"/>
<path d="M22.3621 12.6096C22.3621 12.6096 20.7812 11.5312 19.6562 13.6875" stroke="#170707" stroke-width="0.9375" stroke-miterlimit="10"/>
</svg>
