<svg width="24" height="27" viewBox="0 0 24 27" fill="none" xmlns="http://www.w3.org/2000/svg">
<path d="M21.7706 3.94092C19.8089 7.66217 6.80723 10.8033 10.1922 23.4409C22.6554 23.4409 22.2706 10.3629 21.7706 3.94092Z" stroke="#170707" stroke-width="0.975" stroke-miterlimit="10"/>
<path d="M19.5848 9.8999C17.7316 14.2858 14.6163 20.093 10.1914 23.4416" stroke="#170707" stroke-width="0.975" stroke-miterlimit="10"/>
<path d="M15.791 11.5244L16.7389 15.8577L19.5827 14.7744" stroke="#170707" stroke-width="0.975" stroke-miterlimit="10"/>
<path d="M12.4766 16.3994L13.4245 20.1911L16.7422 19.6494" stroke="#170707" stroke-width="0.975" stroke-miterlimit="10"/>
<path d="M11.0531 11.5243C9.29426 7.73267 5.50639 7.1845 3.38353 2.85767C3.38353 2.85767 2.09294 6.50254 2.04791 10.6273C2.00289 14.7516 3.41054 19.717 8.65442 21.2743" stroke="#170707" stroke-width="0.975" stroke-miterlimit="10"/>
<path d="M3.94336 8.27441C4.65809 11.3662 6.70085 14.8557 9.1569 16.3994" stroke="#170707" stroke-width="0.975" stroke-miterlimit="10"/>
<path d="M7.32031 10.5088L6.67573 14.47L3.94336 14.0973" stroke="#170707" stroke-width="0.975" stroke-miterlimit="10"/>
</svg>
