<svg width="22" height="24" viewBox="0 0 22 24" fill="none" xmlns="http://www.w3.org/2000/svg">
<path d="M1.4043 22.7755C1.4043 22.7755 12.105 19.4759 16.9749 6.41333" stroke="#170707" stroke-width="0.975" stroke-miterlimit="10" stroke-linecap="round" stroke-linejoin="round"/>
<path d="M10.9863 12.6191C10.9863 12.6191 11.6095 4.49414 14.8894 4.49414" stroke="#170707" stroke-width="0.975" stroke-miterlimit="10" stroke-linecap="round" stroke-linejoin="round"/>
<path d="M14.1777 6.93188C14.1777 6.93188 15.0625 0.838135 20.5641 0.838135C20.5641 0.838135 21.0962 5.74685 18.0804 10.1819" stroke="#170707" stroke-width="0.975" stroke-miterlimit="10" stroke-linecap="round" stroke-linejoin="round"/>
<path d="M19.6674 7.20044C19.6674 7.20044 22.3388 10.6219 15.5977 15.4632" stroke="#170707" stroke-width="0.975" stroke-miterlimit="10" stroke-linecap="round" stroke-linejoin="round"/>
<path d="M12.0486 7.33789C8.3212 7.33789 6.72656 19.9316 6.72656 19.9316C18.9021 19.6578 18.0131 13.4828 17.9974 13.3902C17.9974 13.389 17.9974 13.389 17.9974 13.389" stroke="#170707" stroke-width="0.975" stroke-miterlimit="10" stroke-linecap="round" stroke-linejoin="round"/>
<path d="M8.14638 22.3691C7.62455 20.4411 4.70117 21.2442 4.70117 21.2442C4.70117 21.2442 6.46572 19.3763 5.30796 17.0879" stroke="#170707" stroke-width="0.975" stroke-miterlimit="10" stroke-linecap="round" stroke-linejoin="round"/>
<path d="M2.46875 22.3691C2.46875 22.3691 4.12452 20.3379 3.53302 18.3066" stroke="#170707" stroke-width="0.975" stroke-miterlimit="10" stroke-linecap="round" stroke-linejoin="round"/>
</svg>
