<svg width="24" height="19" viewBox="0 0 24 19" fill="none" xmlns="http://www.w3.org/2000/svg">
<path d="M12.6475 10.2086H11.3463C10.9695 10.2086 10.6641 9.85952 10.6641 9.42888V7.18012C10.6641 6.74948 10.9695 6.40039 11.3463 6.40039H12.6475C13.0244 6.40039 13.3298 6.74948 13.3298 7.18012V9.42888C13.3298 9.85952 13.0244 10.2086 12.6475 10.2086Z" stroke="#170707" stroke-width="0.975" stroke-miterlimit="10"/>
<path d="M23.0432 11.7483V1.07263H22.7917C21.8056 1.04043 19.9848 1.13549 17.9933 2.21135C15.2148 3.71232 13.82 6.19536 13.3281 7.18018" stroke="#170707" stroke-width="0.975" stroke-miterlimit="10"/>
<path d="M13.3281 9.45117C13.8224 10.4344 15.2196 12.9055 17.9933 14.3978C19.9858 15.4697 21.8061 15.5616 22.7917 15.5278C22.8755 15.5278 22.9593 15.5278 23.0432 15.5278V12.51" stroke="#170707" stroke-width="0.975" stroke-miterlimit="10"/>
<path d="M13.3281 9.98022C13.3281 11.7423 14.9523 15.2314 17.3341 16.7236C19.0452 17.7956 20.6083 17.8875 21.4546 17.8537H21.6705V15.4989" stroke="#170707" stroke-width="0.975" stroke-miterlimit="10"/>
<path d="M13.3281 8.30054H18.6597" stroke="#170707" stroke-width="0.975" stroke-miterlimit="10"/>
<path d="M0.958984 4.89344V1.07263H1.21046C2.19658 1.04043 4.01736 1.13549 6.00888 2.21135C8.78739 3.71232 10.1821 6.19536 10.674 7.18018" stroke="#170707" stroke-width="0.975" stroke-miterlimit="10"/>
<path d="M10.674 9.45141C10.1797 10.4346 8.78255 12.9058 6.00888 14.398C4.01634 15.47 2.196 15.5619 1.21046 15.528C1.12662 15.528 1.04282 15.528 0.958984 15.528V5.65527" stroke="#170707" stroke-width="0.975" stroke-miterlimit="10"/>
<path d="M10.6745 9.98022C10.6745 11.7423 9.05023 15.2314 6.66843 16.7236C4.95739 17.7956 3.39426 17.8875 2.54796 17.8537H2.33203V15.4989" stroke="#170707" stroke-width="0.975" stroke-miterlimit="10"/>
<path d="M10.6734 8.30054H5.3418" stroke="#170707" stroke-width="0.975" stroke-miterlimit="10"/>
<path d="M2.33203 2.60864V3.3703" stroke="#170707" stroke-width="0.975" stroke-miterlimit="10"/>
<path d="M3.67578 2.60864V3.3703" stroke="#170707" stroke-width="0.975" stroke-miterlimit="10"/>
</svg>
