<svg width="61" height="24" viewBox="0 0 61 24" fill="none" xmlns="http://www.w3.org/2000/svg">
<path d="M41.186 7.41126C42.5695 7.41126 43.6385 7.78855 44.4559 8.54314C45.2734 9.29773 45.6507 10.3039 45.6507 11.5615V17.5982H43.89V16.2148H43.8271C43.0725 17.3467 42.0035 17.9126 40.7459 17.9126C39.6769 17.9126 38.7336 17.5982 37.979 16.9694C37.2873 16.3406 36.8472 15.4602 36.8472 14.517C36.8472 13.5109 37.2245 12.6934 37.979 12.0646C38.7336 11.4357 39.8026 11.1842 41.0603 11.1842C42.1922 11.1842 43.0725 11.3729 43.7642 11.813V11.3729C43.7642 10.786 43.5451 10.199 43.1069 9.81665L43.0096 9.73791C42.5066 9.29773 41.8778 9.0462 41.186 9.0462C40.117 9.0462 39.2996 9.48638 38.7336 10.3667L37.0987 9.36062C38.1048 8.04008 39.4253 7.41126 41.186 7.41126ZM32.3196 3.13525C33.448 3.13525 34.5203 3.52788 35.3776 4.26016L35.5266 4.3929C36.407 5.14749 36.8472 6.27938 36.8472 7.47414C36.8472 8.66891 36.407 9.73791 35.5266 10.5554C34.6463 11.3729 33.5773 11.813 32.3196 11.813L29.3013 11.7501V17.5982H27.4148V3.13525H32.3196ZM41.4376 12.6934C40.683 12.6934 40.0542 12.882 39.5511 13.2593C39.048 13.5737 38.7965 14.0139 38.7965 14.5799C38.7965 15.0829 39.048 15.5231 39.4253 15.7746C39.8655 16.089 40.3686 16.2777 40.8716 16.2777C41.5759 16.2777 42.2802 16.0038 42.8311 15.5071L42.9468 15.3973C43.5756 14.8314 43.89 14.1397 43.89 13.3851C43.324 12.9449 42.5066 12.6934 41.4376 12.6934ZM32.4454 4.89596H29.3013V9.92656H32.4454C33.1371 9.92656 33.8288 9.67503 34.269 9.17197C35.2751 8.22873 35.2751 6.65667 34.3319 5.71343L34.269 5.65055C33.7659 5.14749 33.1371 4.83308 32.4454 4.89596ZM55.8377 7.72567L49.6123 22H47.7258L50.0525 17.0323L45.9651 7.78855H47.9774L50.9328 14.8943H50.9957L53.8883 7.78855H55.8377V7.72567Z" fill="#5F6368"/>
<path d="M21.8183 10.4925C21.8183 9.92656 21.7555 9.36062 21.6926 8.79468H13.8323V12.0017H18.2969C18.1083 13.0078 17.5423 13.951 16.662 14.517V16.5921H19.3659C20.938 15.1458 21.8183 13.0078 21.8183 10.4925Z" fill="#4285F4"/>
<path d="M13.8322 18.6044C16.096 18.6044 17.9825 17.8498 19.3659 16.5922L16.6619 14.517C15.9074 15.0201 14.9641 15.3345 13.8322 15.3345C11.6942 15.3345 9.80776 13.8882 9.17894 11.876H6.41211V14.014C7.85841 16.8437 10.6881 18.6044 13.8322 18.6044Z" fill="#34A853"/>
<path d="M9.17902 11.8758C8.80172 10.8697 8.80172 9.73777 9.17902 8.66876V6.53076H6.41219C5.21742 8.85741 5.21742 11.6242 6.41219 14.0138L9.17902 11.8758Z" fill="#FBBC04"/>
<path d="M13.8323 5.27327C15.0271 5.27327 16.159 5.71345 17.0393 6.53092L19.4289 4.14139C17.9197 2.75797 15.9075 1.9405 13.8952 2.00338C10.7511 2.00338 7.85851 3.76409 6.4751 6.5938L9.24193 8.7318C9.80787 6.71957 11.6943 5.27327 13.8323 5.27327Z" fill="#EA4335"/>
</svg>
