<svg width="122" height="61" viewBox="0 0 122 61" fill="none" xmlns="http://www.w3.org/2000/svg">
<rect x="4.3689" y="0.400635" width="117" height="52" rx="26" transform="rotate(3.88683 4.3689 0.400635)" fill="#F27D7D"/>
<path d="M44.7045 21.8402C44.7479 21.2016 44.7158 20.7291 44.6084 20.4224C44.5023 20.0945 44.2621 19.8536 43.8877 19.6999C43.5132 19.5462 42.9323 19.4425 42.1447 19.389C42.0809 19.3847 42.0533 19.3187 42.062 19.191C42.0707 19.0633 42.1069 19.0016 42.1708 19.0059L43.7011 19.142C44.7198 19.2539 45.623 19.3367 46.4105 19.3902C46.9852 19.4292 47.7635 19.4607 48.7454 19.4847L50.5036 19.5721C50.5674 19.5764 50.595 19.6424 50.5863 19.7701C50.5777 19.8978 50.5414 19.9595 50.4775 19.9552C49.7113 19.9031 49.1429 19.9286 48.7724 20.0318C48.4034 20.1136 48.1448 20.2992 47.9969 20.5885C47.8489 20.8778 47.7533 21.3417 47.7099 21.9802L46.7056 36.7621C46.6622 37.4007 46.6935 37.8839 46.7995 38.2118C46.907 38.5185 47.138 38.7373 47.4926 38.8683C47.8472 38.9993 48.4076 39.0909 49.1739 39.1429C49.2377 39.1473 49.2653 39.2133 49.2566 39.341C49.248 39.4687 49.2117 39.5304 49.1478 39.5261C48.4242 39.4769 47.8396 39.4265 47.3941 39.3748L45.0656 39.1846L42.3497 39.0321C41.9651 39.0274 41.4536 39.0033 40.8151 38.9599C40.7512 38.9556 40.7236 38.8895 40.7323 38.7618C40.741 38.6341 40.7772 38.5725 40.8411 38.5768C41.6499 38.6317 42.2388 38.6183 42.6079 38.5365C42.9982 38.4561 43.2674 38.2712 43.4153 37.9819C43.5647 37.6713 43.6611 37.1968 43.7045 36.5582L44.7045 21.8402ZM31.651 27.4963L45.6348 28.4464L45.5784 29.2765L31.5946 28.3264L31.651 27.4963ZM30.6931 20.8241C30.7365 20.1855 30.7045 19.7129 30.597 19.4063C30.4896 19.0996 30.2585 18.8808 29.9039 18.7498C29.5508 18.5975 29.0017 18.4961 28.2568 18.4454C28.2142 18.4426 28.1972 18.3773 28.2059 18.2495C28.2146 18.1218 28.2402 18.0594 28.2828 18.0623L29.9727 18.2092C30.9489 18.3183 31.7137 18.3917 32.2671 18.4293C33.012 18.4799 33.8968 18.5186 34.9213 18.5454L36.5837 18.6263C36.6262 18.6292 36.6432 18.6945 36.6345 18.8222C36.6258 18.9499 36.6002 19.0123 36.5576 19.0094C35.7914 18.9574 35.2124 18.9822 34.8206 19.0838C34.4501 19.187 34.1795 19.3931 34.0088 19.7022C33.8608 19.9915 33.7652 20.4555 33.7218 21.094L32.7218 35.8121C32.6784 36.4506 32.7098 36.9338 32.8158 37.2618C32.9232 37.5684 33.1543 37.7872 33.5089 37.9183C33.8847 38.0507 34.4664 38.1437 35.254 38.1972C35.2965 38.2001 35.3135 38.2654 35.3048 38.3931C35.2961 38.5208 35.2705 38.5832 35.2279 38.5803C34.5043 38.5311 33.941 38.4822 33.538 38.4334L30.9222 38.2236L28.5894 38.0972C28.1836 38.091 27.6188 38.0633 26.8951 38.0142C26.8526 38.0113 26.8356 37.946 26.8443 37.8183C26.853 37.6906 26.8786 37.6281 26.9212 37.631C27.6874 37.6831 28.2551 37.6682 28.6241 37.5864C28.9932 37.5045 29.2517 37.319 29.3996 37.0297C29.549 36.7191 29.6454 36.2445 29.6888 35.606L30.6931 20.8241ZM61.8515 40.7741C59.872 40.6396 58.1365 40.0619 56.645 39.0411C55.1761 38.0005 54.0695 36.6638 53.3252 35.0309C52.6035 33.3782 52.3063 31.6153 52.4336 29.7423C52.5826 27.55 53.2632 25.7146 54.4755 24.236C55.6893 22.7362 57.185 21.6511 58.9625 20.9807C60.7613 20.3118 62.5653 20.0387 64.3745 20.1617C66.3965 20.299 68.1412 20.8987 69.6086 21.9606C71.0774 23.0012 72.1635 24.3259 72.8667 25.9346C73.5912 27.5447 73.8942 29.2225 73.7756 30.9678C73.644 32.9047 73.0125 34.6472 71.8809 36.1954C70.7494 37.7436 69.2898 38.9273 67.5021 39.7467C65.7357 40.5675 63.8522 40.91 61.8515 40.7741ZM62.989 40.0816C64.2661 40.1683 65.4279 39.9052 66.4746 39.292C67.5439 38.6591 68.4115 37.6916 69.0773 36.3898C69.7643 35.0894 70.1708 33.5133 70.2966 31.6616C70.4311 29.6821 70.2205 27.9038 69.6648 26.3265C69.1318 24.7293 68.2884 23.4532 67.1345 22.4981C66.0018 21.5445 64.6267 21.0127 63.0091 20.9028C60.9233 20.7611 59.2657 21.3969 58.0364 22.8101C56.8085 24.2021 56.1057 26.2071 55.9278 28.825C55.789 30.8683 55.9938 32.7318 56.5423 34.4155C57.0922 36.078 57.9313 37.4179 59.0596 38.4354C60.1893 39.4316 61.4991 39.9803 62.989 40.0816ZM81.809 22.3726C80.5106 22.2844 79.419 22.6164 78.5339 23.3689C77.6503 24.1 76.9308 25.2485 76.3754 26.8145C76.371 26.8783 76.305 26.9059 76.1773 26.8972C76.0723 26.8687 76.0213 26.8332 76.0242 26.7906C76.1657 25.9663 76.3338 24.9086 76.5284 23.6175C76.7245 22.3051 76.845 21.319 76.8898 20.6592C76.897 20.5528 76.9539 20.5032 77.0603 20.5104C77.188 20.5191 77.2482 20.5766 77.241 20.683C77.2092 21.1513 77.7892 21.4259 78.9812 21.5069C80.8073 21.6951 82.9442 21.8724 85.3919 22.0387C86.6476 22.124 87.9793 22.1931 89.387 22.246L91.5602 22.3615C92.369 22.4165 92.9579 22.403 93.327 22.3212C93.7173 22.2408 93.9765 22.0446 94.1046 21.7326C94.1317 21.6489 94.1985 21.6106 94.3049 21.6179C94.4113 21.6251 94.4616 21.6713 94.4558 21.7564C94.3472 22.4119 94.2153 23.4079 94.0604 24.7445C93.9054 26.0811 93.7997 27.1644 93.7433 27.9945C93.7405 28.037 93.6752 28.054 93.5474 28.0453C93.441 28.0381 93.3786 28.0125 93.3602 27.9684C93.2587 26.3151 92.8403 25.0786 92.1048 24.2588C91.3708 23.4178 90.3333 22.9517 88.9924 22.8606C88.3965 22.8201 87.9459 22.843 87.6407 22.9292C87.3567 23.0168 87.1522 23.1953 87.0269 23.4648C86.9032 23.713 86.8218 24.1244 86.7827 24.6991L85.7827 39.4171C85.7394 40.0557 85.7707 40.5389 85.8767 40.8668C86.0054 41.1749 86.2577 41.3952 86.6336 41.5277C87.0095 41.6601 87.6125 41.7545 88.4426 41.8109C88.5064 41.8153 88.534 41.8813 88.5254 42.009C88.5167 42.1367 88.4804 42.1984 88.4166 42.1941C87.6716 42.1434 87.087 42.093 86.6628 42.0428L84.047 41.833L81.5546 41.6958C81.1061 41.6867 80.4882 41.6554 79.7007 41.6019C79.6581 41.599 79.6411 41.5337 79.6498 41.406C79.6585 41.2783 79.6841 41.2159 79.7267 41.2188C80.5568 41.2752 81.167 41.2632 81.5573 41.1828C81.969 41.1038 82.2488 40.9197 82.3967 40.6304C82.5674 40.3213 82.6744 39.8474 82.7178 39.2089L83.7221 24.427C83.7597 23.8736 83.734 23.4656 83.6449 23.2029C83.5573 22.919 83.378 22.7251 83.1071 22.6211C82.8377 22.4959 82.4049 22.4131 81.809 22.3726Z" fill="#FBFBFB"/>
</svg>
