<svg width="32" height="32" viewBox="0 0 32 32" fill="none" xmlns="http://www.w3.org/2000/svg">
<mask id="mask0_9_428" style="mask-type:luminance" maskUnits="userSpaceOnUse" x="0" y="0" width="32" height="32">
<path d="M0 32H32V0H0V32Z" fill="white"/>
</mask>
<g mask="url(#mask0_9_428)">
<path d="M16.9748 24.6827L18.8742 25.7789L16.8951 26.3097C16.043 26.5376 15.5379 27.4129 15.7663 28.2643C15.8805 28.6904 16.1559 29.0298 16.5099 29.2337C16.8638 29.4383 17.2954 29.5073 17.7215 29.3931L22.3729 28.1464C22.8616 28.0158 23.3046 27.8012 23.6912 27.5214L24.9072 28.2235" stroke="#170707" stroke-width="0.9375" stroke-miterlimit="10" stroke-linecap="round" stroke-linejoin="round"/>
<path d="M28.9543 21.1947L27.5181 20.3652" stroke="#170707" stroke-width="0.9375" stroke-miterlimit="10" stroke-linecap="round" stroke-linejoin="round"/>
<path d="M27.5173 20.3651H27.518C27.4678 19.0229 26.75 17.7367 25.5013 17.0157L21.5038 14.7073" stroke="#170707" stroke-width="0.9375" stroke-miterlimit="10" stroke-linecap="round" stroke-linejoin="round"/>
<path d="M28.0062 29.1324L31.3087 23.4123C31.7676 22.6174 31.4952 21.6011 30.7005 21.1423C29.9058 20.6834 28.8893 20.9557 28.4305 21.7505L25.128 27.4706C24.669 28.2654 24.9414 29.2818 25.7362 29.7406C26.531 30.1995 27.5473 29.9272 28.0062 29.1324Z" stroke="#170707" stroke-width="0.9375" stroke-miterlimit="10" stroke-linecap="round" stroke-linejoin="round"/>
<path d="M3.02869 21.1834L4.24406 20.4812C4.19575 20.0062 4.23087 19.5156 4.362 19.0274L5.60819 14.3754C5.72237 13.9493 5.9985 13.6099 6.35237 13.406C6.70562 13.2014 7.13731 13.1324 7.56337 13.2466C8.41544 13.475 8.92056 14.3497 8.69219 15.2017L8.16194 17.1807L10.6009 15.7727" stroke="#170707" stroke-width="0.9375" stroke-miterlimit="10" stroke-linecap="round" stroke-linejoin="round"/>
<path d="M7.09229 28.2029L8.52854 27.3734H8.52916C9.71697 28.0015 11.189 28.0228 12.4377 27.3018L19.8404 23.0282C20.4365 22.6838 20.6925 21.9546 20.4428 21.3303" stroke="#170707" stroke-width="0.9375" stroke-miterlimit="10" stroke-linecap="round" stroke-linejoin="round"/>
<path d="M16.6088 21.7463L14.6863 22.8563" stroke="#170707" stroke-width="0.9375" stroke-miterlimit="10" stroke-linecap="round" stroke-linejoin="round"/>
<path d="M3.57399 28.4046L3.99462 29.1327C4.45337 29.9271 5.46962 30.1996 6.26462 29.7409C6.79774 29.4334 7.09524 28.874 7.09524 28.2996C7.09524 28.0177 7.02399 27.7321 6.87274 27.4709L3.57024 21.7509C3.11149 20.9559 2.09524 20.6834 1.30024 21.1421C0.767119 21.4502 0.468994 22.009 0.468994 22.5827C0.468994 22.8646 0.540869 23.1502 0.692119 23.4121L2.64149 26.7884" stroke="#170707" stroke-width="0.9375" stroke-miterlimit="10" stroke-linecap="round" stroke-linejoin="round"/>
<path d="M16.0525 15.8948V20.0005C16.0525 20.7532 15.4423 21.3635 14.6895 21.3635C13.9368 21.3635 13.3267 20.7532 13.3267 20.0005V15.8948" stroke="#170707" stroke-width="0.9375" stroke-miterlimit="10" stroke-linecap="round" stroke-linejoin="round"/>
<path d="M18.7782 15.8947V20.6469C18.7782 21.3996 18.1679 22.0098 17.4152 22.0098C16.6625 22.0098 16.0524 21.3996 16.0524 20.6469V14.433" stroke="#170707" stroke-width="0.9375" stroke-miterlimit="10" stroke-linecap="round" stroke-linejoin="round"/>
<path d="M20.604 5.17407V6.57782C21.0396 6.77345 21.4471 7.04907 21.8046 7.4072L22.349 7.95095" stroke="#170707" stroke-width="0.9375" stroke-miterlimit="10" stroke-linecap="round" stroke-linejoin="round"/>
<path d="M18.7778 14.4335V20.001C18.7778 20.3779 18.9303 20.7185 19.1778 20.9647C19.4241 21.2116 19.7647 21.3641 20.141 21.3641C20.8935 21.3641 21.504 20.7535 21.504 20.001V11.621L22.9528 13.0697C23.576 13.6935 24.5865 13.6935 25.2103 13.0697C25.5221 12.7579 25.6778 12.3497 25.6778 11.941C25.6778 11.5329 25.5221 11.1241 25.2103 10.8122L23.6685 9.27036" stroke="#170707" stroke-width="0.9375" stroke-miterlimit="10" stroke-linecap="round" stroke-linejoin="round"/>
<path d="M13.3267 14.4332V18.8332C13.3267 19.2094 13.1739 19.5504 12.9275 19.7968C12.6734 20.0519 12.3186 20.2057 11.927 20.1955C11.1853 20.1761 10.601 19.553 10.601 18.8112V10.2632C10.601 8.8211 11.356 7.55685 12.4935 6.84216M12.4935 6.84216V6.84273M12.4935 6.84216V5.18329" stroke="#170707" stroke-width="0.9375" stroke-miterlimit="10" stroke-linecap="round" stroke-linejoin="round"/>
<path d="M19.842 2.03571H13.2369C12.3192 2.03571 11.5752 2.77971 11.5752 3.69746C11.5752 4.61521 12.3192 5.35921 13.2369 5.35921H19.842C20.7598 5.35921 21.5037 4.61521 21.5037 3.69746C21.5037 2.77971 20.7598 2.03571 19.842 2.03571Z" stroke="#170707" stroke-width="0.9375" stroke-miterlimit="10" stroke-linecap="round" stroke-linejoin="round"/>
</g>
</svg>
