<svg width="32" height="32" viewBox="0 0 32 32" fill="none" xmlns="http://www.w3.org/2000/svg">
<path d="M22.4773 7.04575C21.4577 6.12648 20.2535 5.43564 18.9453 5.01949C17.6371 4.60335 16.2551 4.4715 14.8918 4.63277C12.8341 4.86779 10.9055 5.75467 9.38775 7.16383C7.86999 8.57299 6.84264 10.4306 6.45579 12.4652C6.06894 14.4998 6.34287 16.6048 7.23757 18.4727C8.13226 20.3406 9.60082 21.8733 11.4287 22.8471V28.5715C11.429 28.8745 11.5495 29.165 11.7638 29.3793C11.978 29.5935 12.2685 29.714 12.5715 29.7143H13.7144V30.8572C13.7147 31.1602 13.8352 31.4507 14.0495 31.665C14.2637 31.8792 14.5542 31.9997 14.8573 32H17.143C17.446 31.9997 17.7365 31.8792 17.9508 31.665C18.165 31.4507 18.2855 31.1602 18.2858 30.8572V29.7143H19.4287C19.7317 29.714 20.0222 29.5935 20.2365 29.3793C20.4507 29.165 20.5712 28.8745 20.5715 28.5715V22.8474C21.9507 22.1129 23.1321 21.0562 24.0154 19.7671C24.8986 18.4781 25.4575 16.9948 25.6446 15.4435C25.8317 13.8921 25.6415 12.3185 25.09 10.8565C24.5386 9.39442 23.6423 8.08713 22.4773 7.04575ZM19.4287 25.1429V26.2858H12.5715V25.1429H19.4287ZM17.1438 30.8572H14.8573V29.7143H17.1433L17.1438 30.8572ZM17.7144 28.5715H12.5715V27.4286H19.4287V28.5715H17.7144ZM19.7495 21.9842C19.6533 22.031 19.5722 22.104 19.5155 22.1948C19.4587 22.2856 19.4287 22.3905 19.4287 22.4975V24H16.5715V21.3795L18.1184 19.8326C18.2225 19.7248 18.2801 19.5805 18.2788 19.4307C18.2775 19.2808 18.2174 19.1375 18.1114 19.0316C18.0055 18.9256 17.8622 18.8655 17.7123 18.8642C17.5625 18.8629 17.4182 18.9205 17.3104 19.0246L16.0001 20.3348L14.6898 19.0246C14.5821 18.9205 14.4377 18.8629 14.2879 18.8642C14.1381 18.8655 13.9947 18.9256 13.8888 19.0316C13.7828 19.1375 13.7227 19.2808 13.7214 19.4307C13.7201 19.5805 13.7777 19.7248 13.8818 19.8326L15.4287 21.3795V24H12.5715V22.4975C12.5716 22.3905 12.5415 22.2856 12.4848 22.1948C12.428 22.104 12.3469 22.031 12.2507 21.9842C10.5826 21.174 9.22246 19.8444 8.37466 18.1952C7.52686 16.5459 7.23718 14.666 7.54914 12.8381C7.86111 11.0101 8.75788 9.33271 10.1047 8.05799C11.4515 6.78326 13.1756 5.98004 15.018 5.769C15.348 5.73214 15.6798 5.7136 16.0118 5.71346C18.1182 5.70717 20.1514 6.48569 21.715 7.89718C22.7631 8.83393 23.5644 10.0143 24.0483 11.3341C24.5322 12.6539 24.6836 14.0726 24.4894 15.4648C24.2952 16.857 23.7611 18.18 22.9345 19.317C22.1079 20.4539 21.014 21.3701 19.7495 21.9842Z" fill="#170707"/>
<path d="M16 3.42857C16.1516 3.42857 16.2969 3.36837 16.4041 3.26121C16.5112 3.15404 16.5714 3.0087 16.5714 2.85714V0.571429C16.5714 0.419877 16.5112 0.274531 16.4041 0.167368C16.2969 0.0602041 16.1516 0 16 0C15.8485 0 15.7031 0.0602041 15.596 0.167368C15.4888 0.274531 15.4286 0.419877 15.4286 0.571429V2.85714C15.4286 3.0087 15.4888 3.15404 15.596 3.26121C15.7031 3.36837 15.8485 3.42857 16 3.42857Z" fill="#170707"/>
<path d="M7.51479 6.60856C7.56751 6.66314 7.63056 6.70667 7.70028 6.73662C7.76999 6.76657 7.84498 6.78233 7.92085 6.78299C7.99672 6.78365 8.07197 6.76919 8.1422 6.74046C8.21242 6.71173 8.27622 6.6693 8.32988 6.61564C8.38353 6.56199 8.42596 6.49819 8.45469 6.42796C8.48342 6.35774 8.49788 6.28249 8.49722 6.20662C8.49656 6.13074 8.4808 6.05576 8.45085 5.98604C8.4209 5.91633 8.37737 5.85327 8.32279 5.80056L6.70645 4.18422C6.65374 4.12964 6.59068 4.08611 6.52097 4.05616C6.45125 4.02621 6.37627 4.01045 6.30039 4.00979C6.22452 4.00913 6.14927 4.02359 6.07905 4.05232C6.00882 4.08105 5.94502 4.12348 5.89137 4.17713C5.83771 4.23079 5.79528 4.29459 5.76655 4.36481C5.73782 4.43504 5.72336 4.51029 5.72402 4.58616C5.72468 4.66203 5.74044 4.73702 5.77039 4.80673C5.80034 4.87645 5.84387 4.9395 5.89845 4.99222L7.51479 6.60856Z" fill="#170707"/>
<path d="M4.57138 13.7142H2.28566C2.13411 13.7142 1.98876 13.7744 1.8816 13.8816C1.77444 13.9888 1.71423 14.1341 1.71423 14.2857C1.71423 14.4372 1.77444 14.5826 1.8816 14.6897C1.98876 14.7969 2.13411 14.8571 2.28566 14.8571H4.57138C4.72293 14.8571 4.86828 14.7969 4.97544 14.6897C5.0826 14.5826 5.14281 14.4372 5.14281 14.2857C5.14281 14.1341 5.0826 13.9888 4.97544 13.8816C4.86828 13.7744 4.72293 13.7142 4.57138 13.7142Z" fill="#170707"/>
<path d="M7.51479 21.9629L5.89845 23.5792C5.84387 23.632 5.80034 23.695 5.77039 23.7647C5.74044 23.8344 5.72468 23.9094 5.72402 23.9853C5.72336 24.0612 5.73782 24.1364 5.76655 24.2066C5.79528 24.2769 5.83771 24.3407 5.89137 24.3943C5.94502 24.448 6.00882 24.4904 6.07905 24.5191C6.14927 24.5479 6.22452 24.5623 6.30039 24.5617C6.37627 24.561 6.45125 24.5452 6.52097 24.5153C6.59068 24.4854 6.65374 24.4418 6.70645 24.3872L8.32279 22.7709C8.42688 22.6631 8.48448 22.5188 8.48318 22.369C8.48188 22.2191 8.42178 22.0758 8.31583 21.9699C8.20989 21.8639 8.06656 21.8038 7.91674 21.8025C7.76691 21.8012 7.62257 21.8588 7.51479 21.9629Z" fill="#170707"/>
<path d="M25.2936 4.18422L23.6773 5.80056C23.6227 5.85327 23.5791 5.91633 23.5492 5.98604C23.5193 6.05576 23.5035 6.13074 23.5028 6.20662C23.5022 6.28249 23.5166 6.35774 23.5454 6.42796C23.5741 6.49819 23.6165 6.56199 23.6702 6.61564C23.7238 6.6693 23.7876 6.71173 23.8579 6.74046C23.9281 6.76919 24.0033 6.78365 24.0792 6.78299C24.1551 6.78233 24.2301 6.76657 24.2998 6.73662C24.3695 6.70667 24.4325 6.66314 24.4853 6.60856L26.1016 4.99222C26.1562 4.9395 26.1997 4.87645 26.2297 4.80673C26.2596 4.73702 26.2754 4.66203 26.276 4.58616C26.2767 4.51029 26.2622 4.43504 26.2335 4.36481C26.2048 4.29459 26.1623 4.23079 26.1087 4.17713C26.055 4.12348 25.9912 4.08105 25.921 4.05232C25.8508 4.02359 25.7755 4.00913 25.6997 4.00979C25.6238 4.01045 25.5488 4.02621 25.4791 4.05616C25.4094 4.08611 25.3463 4.12964 25.2936 4.18422Z" fill="#170707"/>
<path d="M24.4851 21.9629C24.3774 21.8588 24.233 21.8012 24.0832 21.8025C23.9334 21.8038 23.79 21.8639 23.6841 21.9699C23.5781 22.0758 23.518 22.2191 23.5167 22.369C23.5154 22.5188 23.573 22.6631 23.6771 22.7709L25.2935 24.3872C25.4012 24.4913 25.5456 24.5489 25.6954 24.5476C25.8452 24.5463 25.9886 24.4862 26.0945 24.3803C26.2005 24.2743 26.2606 24.131 26.2619 23.9812C26.2632 23.8314 26.2056 23.687 26.1015 23.5792L24.4851 21.9629Z" fill="#170707"/>
<path d="M29.7143 13.7142H27.4286C27.2771 13.7142 27.1317 13.7744 27.0245 13.8816C26.9174 13.9888 26.8572 14.1341 26.8572 14.2857C26.8572 14.4372 26.9174 14.5826 27.0245 14.6897C27.1317 14.7969 27.2771 14.8571 27.4286 14.8571H29.7143C29.8659 14.8571 30.0112 14.7969 30.1184 14.6897C30.2255 14.5826 30.2858 14.4372 30.2858 14.2857C30.2858 14.1341 30.2255 13.9888 30.1184 13.8816C30.0112 13.7744 29.8659 13.7142 29.7143 13.7142Z" fill="#170707"/>
</svg>
