<svg width="33" height="24" viewBox="0 0 33 24" fill="none" xmlns="http://www.w3.org/2000/svg">
<g clip-path="url(#clip0_7360_2847)">
<path fill-rule="evenodd" clip-rule="evenodd" d="M6.50965 8.19078V12.6899C6.50965 13.0554 6.45057 13.4099 6.26595 13.7311C5.98411 14.2288 5.4796 14.5601 4.91088 14.6209C4.10226 14.7354 3.30842 14.6136 2.53857 14.3717C2.06226 14.2203 1.60257 14.0135 1.13365 13.8363C1.04503 13.8012 1.04688 13.7403 1.04688 13.6683V5.58217V4.08678C1.06107 2.29778 2.29758 0.7508 4.03949 0.342781C4.36072 0.272627 4.69488 0.23755 5.02165 0.235704C6.85303 0.228319 8.68441 0.235704 10.514 0.235704H10.6727V0.394473C10.6727 6.87447 10.6801 13.3545 10.6672 19.8345C10.6551 21.6706 9.34965 23.2433 7.54718 23.5932C7.26841 23.6486 6.97857 23.6708 6.69426 23.6726C4.86657 23.68 3.04072 23.6782 1.21488 23.68H1.0598V15.4628C1.41795 15.5348 1.77242 15.6234 2.13242 15.6732C2.79518 15.7619 3.4598 15.8542 4.12626 15.8948C4.7318 15.9317 5.34472 15.9299 5.95026 15.8985C6.82903 15.8542 7.69118 15.6972 8.4758 15.2615C9.33611 14.7834 9.81057 14.0468 9.86595 13.0646C9.90287 12.4499 9.8918 11.8314 9.89364 11.2148C9.89734 10.2622 9.89364 9.30955 9.89734 8.35693C9.89734 8.22401 9.86411 8.1834 9.72749 8.18524C8.70841 8.19078 7.68934 8.18893 6.67026 8.19078H6.50965Z" fill="#255797"/>
<path fill-rule="evenodd" clip-rule="evenodd" d="M11.862 23.6752V14.6881C11.8897 14.6992 11.91 14.7047 11.9248 14.7158C12.6355 15.2863 13.4663 15.5761 14.3451 15.7423C15.4897 15.9601 16.6417 15.973 17.7974 15.8807C18.631 15.8053 19.4582 15.6714 20.2731 15.4801C20.3709 15.4598 20.4115 15.4266 20.4115 15.3195C20.4041 14.8653 20.4078 14.4093 20.4078 13.9552V13.8001C20.3525 13.8223 20.3155 13.837 20.2786 13.8555C19.5014 14.234 18.6909 14.5053 17.8288 14.6124C17.0718 14.7066 16.3223 14.7084 15.6023 14.4149C14.718 14.053 14.2343 13.3792 14.1032 12.445C14.0243 11.9415 14.0661 11.4265 14.2251 10.9423C14.5186 10.0801 15.1426 9.58903 16.0011 9.3638C16.6103 9.20688 17.2232 9.22165 17.8398 9.29918C18.7199 9.4164 19.5731 9.68497 20.3617 10.093C20.3691 10.0967 20.3783 10.093 20.3986 10.093C20.4023 10.058 20.4078 10.021 20.4078 9.98411C20.4078 9.51703 20.406 9.04811 20.4097 8.58103C20.4097 8.49795 20.3894 8.45549 20.3026 8.43334C18.87 8.10103 17.4226 7.92195 15.9494 7.99026C15.0189 8.03088 14.0977 8.15088 13.2171 8.47765C12.7592 8.64749 12.3309 8.87088 11.9488 9.17918L11.8565 9.23826V9.06842V4.1318C11.8544 3.09325 12.268 2.09707 13.005 1.36531C13.7419 0.633546 14.741 0.227044 15.7795 0.236415C17.6368 0.225338 19.494 0.230877 21.3512 0.230877C21.39 0.230877 21.4288 0.234569 21.4804 0.238261C21.4841 0.293646 21.4878 0.345338 21.4878 0.397031C21.4878 6.8918 21.4989 13.3847 21.4786 19.8795C21.4749 21.3509 20.742 22.453 19.4774 23.1915C18.9002 23.522 18.2446 23.691 17.5795 23.6807H11.9949L11.862 23.6752Z" fill="#CA4638"/>
<path fill-rule="evenodd" clip-rule="evenodd" d="M22.6841 23.6789V15.7183H22.8558C24.8534 15.7183 26.8528 15.7257 28.8503 15.7183C29.4577 15.7183 30.03 15.5651 30.5211 15.1866C31.008 14.8325 31.2774 14.252 31.2335 13.6515C31.1895 13.051 30.8384 12.5159 30.3051 12.2365C29.8999 12.0191 29.453 11.8907 28.9943 11.8599C29.214 11.7934 29.4226 11.7472 29.6164 11.666C30.2017 11.4242 30.6023 11.0125 30.7352 10.3737C30.8951 9.65246 30.5596 8.91224 29.9118 8.55709C29.4171 8.27648 28.8761 8.19155 28.3204 8.19155C26.502 8.18786 24.6835 8.19155 22.8669 8.19155H22.6768V8.03094V4.11155C22.6839 1.96469 24.429 0.229524 26.5758 0.23463C28.4368 0.23463 30.2977 0.240169 32.1586 0.238323C32.3063 0.238323 32.2971 0.312169 32.2971 0.411861V19.6672C32.2897 21.1036 31.7008 22.2389 30.51 23.0457C29.9912 23.3965 29.4097 23.6014 28.782 23.6476C28.4347 23.6688 28.0868 23.678 27.7389 23.6752L22.8281 23.6789H22.6841Z" fill="#479950"/>
<path d="M24.5874 14.4741V12.4433C24.6317 12.4414 24.6742 12.4359 24.7166 12.4359C25.4256 12.4359 26.1345 12.4341 26.8434 12.4377C27.3492 12.4414 27.7351 12.7239 27.8569 13.167C28.0416 13.8408 27.6059 14.4593 26.8969 14.4833C26.14 14.5073 25.3831 14.487 24.6243 14.487C24.6169 14.487 24.6096 14.4833 24.5874 14.4741ZM24.5911 11.2581V9.37498C24.6336 9.37313 24.6705 9.3676 24.7092 9.3676C25.3443 9.3676 25.9794 9.36206 26.6126 9.37313C26.7794 9.37505 26.9442 9.40889 27.0982 9.47283C27.5006 9.64821 27.6926 10.0581 27.6151 10.5122C27.54 10.9344 27.1761 11.244 26.7474 11.2507C26.0348 11.2747 25.3203 11.2581 24.5911 11.2581Z" fill="#479950"/>
</g>
<defs>
<clipPath id="clip0_7360_2847">
<rect width="31.3846" height="24" fill="white" transform="translate(0.925293)"/>
</clipPath>
</defs>
</svg>
