<svg width="42" height="24" viewBox="0 0 42 24" fill="none" xmlns="http://www.w3.org/2000/svg">
<rect x="0.839941" y="0.4" width="40.45" height="23.2" rx="3.6" stroke="url(#paint0_linear_7360_2828)" stroke-width="0.8"/>
<path fill-rule="evenodd" clip-rule="evenodd" d="M32.3063 20.8462V20.5697H32.2353L32.1534 20.7599L32.0716 20.5697H32.0006V20.8462H32.0505V20.6376L32.1274 20.8177H32.1794L32.2564 20.6371V20.8462H32.3063ZM31.8062 20.8462V20.6167H31.7152V20.57H31.947V20.6167H31.8558V20.8462H31.8062ZM31.442 19.1661C31.254 19.0399 30.9946 18.9749 30.7084 18.9749C30.2535 18.9749 29.96 19.1968 29.96 19.5596C29.96 19.8578 30.1781 20.0413 30.5805 20.0986L30.7651 20.1253C30.9793 20.1559 31.0809 20.2132 31.0809 20.3162C31.0809 20.4578 30.9379 20.538 30.671 20.538C30.4001 20.538 30.2046 20.4501 30.0729 20.3471L29.8886 20.6564C30.103 20.8169 30.3739 20.8935 30.6671 20.8935C31.1862 20.8935 31.4872 20.645 31.4872 20.2972C31.4872 19.9763 31.2501 19.8081 30.8592 19.7508L30.6746 19.7241C30.5054 19.7012 30.37 19.6666 30.37 19.5446C30.37 19.4107 30.4979 19.3307 30.7123 19.3307C30.9416 19.3307 31.1638 19.4183 31.2728 19.4873L31.442 19.1661ZM29.5652 19.1661C29.377 19.0399 29.1176 18.9749 28.8316 18.9749C28.3765 18.9749 28.083 19.1968 28.083 19.5596C28.083 19.8578 28.3011 20.0413 28.7037 20.0986L28.888 20.1253C29.1025 20.1559 29.2041 20.2132 29.2041 20.3162C29.2041 20.4578 29.0612 20.538 28.7939 20.538C28.5231 20.538 28.3276 20.4501 28.1958 20.3471L28.0118 20.6564C28.226 20.8169 28.4968 20.8935 28.7903 20.8935C29.3094 20.8935 29.6102 20.645 29.6102 20.2972C29.6102 19.9763 29.3733 19.8081 28.9819 19.7508L28.7978 19.7241C28.6286 19.7012 28.4929 19.6666 28.4929 19.5446C28.4929 19.4107 28.6208 19.3307 28.8353 19.3307C29.0648 19.3307 29.2868 19.4183 29.396 19.4873L29.5652 19.1661ZM25.0851 19.9267C25.0851 20.2476 24.8784 20.5111 24.54 20.5111C24.2163 20.5111 23.9982 20.2592 23.9982 19.9267C23.9982 19.5942 24.2163 19.342 24.54 19.342C24.8784 19.342 25.0851 19.6056 25.0851 19.9267ZM23.6296 19.9267V21.5009H24.0206V20.6183C24.1449 20.7826 24.3331 20.8858 24.5888 20.8858C25.0929 20.8858 25.4877 20.4844 25.4877 19.9267C25.4877 19.3687 25.0929 18.9675 24.5888 18.9675C24.3331 18.9675 24.1449 19.0708 24.0206 19.2348V19.0132H23.6296V19.9267ZM26.176 19.9304C26.176 19.6095 26.3827 19.3457 26.7214 19.3457C27.0448 19.3457 27.2631 19.5979 27.2631 19.9304C27.2631 20.2629 27.0448 20.5151 26.7214 20.5151C26.3827 20.5151 26.176 20.2513 26.176 19.9304ZM27.6317 19.9304V19.0172H27.2405V19.2388C27.1165 19.0745 26.9283 18.9712 26.6725 18.9712C26.1685 18.9712 25.7737 19.3726 25.7737 19.9304C25.7737 20.4884 26.1685 20.8898 26.6725 20.8898C26.9283 20.8898 27.1165 20.7866 27.2405 20.622V20.8439H27.6317V19.9304ZM14.5909 19.9304C14.5909 19.6095 14.7976 19.3457 15.1363 19.3457C15.4596 19.3457 15.678 19.5979 15.678 19.9304C15.678 20.2629 15.4596 20.5151 15.1363 20.5151C14.7976 20.5151 14.5909 20.2513 14.5909 19.9304ZM16.0466 19.9304V19.0172H15.6554V19.2388C15.5314 19.0745 15.3432 18.9712 15.0874 18.9712C14.5834 18.9712 14.1885 19.3726 14.1885 19.9304C14.1885 20.4884 14.5834 20.8898 15.0874 20.8898C15.3432 20.8898 15.5314 20.7866 15.6554 20.622V20.8439H16.0466V19.9304ZM20.8989 19.3267C21.1508 19.3267 21.3125 19.4873 21.3538 19.7701H20.4209C20.4625 19.5063 20.6205 19.3267 20.8989 19.3267ZM20.9062 18.9712C20.3796 18.9712 20.011 19.361 20.011 19.9304C20.011 20.5111 20.3947 20.8898 20.9325 20.8898C21.2033 20.8898 21.4518 20.8209 21.6699 20.6336L21.4781 20.3392C21.3276 20.4617 21.1358 20.5304 20.9551 20.5304C20.7032 20.5304 20.4737 20.4121 20.4173 20.0833H21.7526C21.7562 20.0336 21.7601 19.984 21.7601 19.9304C21.7562 19.361 21.4105 18.9712 20.9062 18.9712ZM17.98 19.1624C17.7918 19.0362 17.5324 18.9712 17.2465 18.9712C16.7913 18.9712 16.4978 19.1928 16.4978 19.5559C16.4978 19.8541 16.7159 20.0373 17.1183 20.0949L17.3029 20.1216C17.5173 20.1522 17.619 20.2093 17.619 20.3125C17.619 20.4541 17.4758 20.5341 17.2088 20.5341C16.9379 20.5341 16.7425 20.4464 16.6107 20.3432L16.4264 20.6527C16.6408 20.813 16.9117 20.8898 17.2052 20.8898C17.7243 20.8898 18.025 20.641 18.025 20.2935C18.025 19.9724 17.7882 19.8044 17.3967 19.7471L17.2127 19.7204C17.0432 19.6975 16.9078 19.6629 16.9078 19.5406C16.9078 19.407 17.0357 19.3267 17.2501 19.3267C17.4797 19.3267 17.7016 19.4146 17.8106 19.4836L17.98 19.1624ZM23.024 18.9712C22.7983 18.9712 22.6515 19.0782 22.5498 19.2388V19.0172H22.1625V20.8439H22.5537V19.8195C22.5537 19.5176 22.6816 19.3497 22.9377 19.3497C23.0164 19.3497 23.0991 19.361 23.182 19.3956L23.3024 19.0209C23.2158 18.9866 23.1027 18.9712 23.024 18.9712ZM19.6876 19.0172H19.0481V18.4631H18.653V19.0172H18.2883V19.38H18.653V20.2132C18.653 20.6373 18.815 20.8898 19.2777 20.8898C19.4469 20.8898 19.6424 20.8359 19.7666 20.7483L19.6536 20.4081C19.5371 20.477 19.4092 20.5111 19.3076 20.5111C19.1121 20.5111 19.0481 20.3891 19.0481 20.2056V19.38H19.6876V19.0172ZM13.8423 20.8439V19.6975C13.8423 19.2657 13.5717 18.9749 13.135 18.9712C12.9057 18.9675 12.6686 19.0399 12.5033 19.2961C12.379 19.0938 12.1836 18.9712 11.9091 18.9712C11.7172 18.9712 11.529 19.0288 11.3822 19.2427V19.0172H10.9912V20.8439H11.3861V19.8311C11.3861 19.5139 11.5592 19.3457 11.8261 19.3457C12.0856 19.3457 12.2174 19.5176 12.2174 19.8274V20.8439H12.6125V19.8311C12.6125 19.5139 12.7929 19.3457 13.0523 19.3457C13.3195 19.3457 13.4474 19.5176 13.4474 19.8274V20.8439H13.8423Z" fill="#170707"/>
<path d="M24.2408 4.52466H18.0996V15.7361H24.2408V4.52466Z" fill="#FF5F00"/>
<path fill-rule="evenodd" clip-rule="evenodd" d="M18.4895 10.1303C18.4895 7.85572 19.5379 5.82993 21.1703 4.52456C19.9764 3.56963 18.47 3 16.8329 3C12.9569 3 9.81494 6.19252 9.81494 10.1303C9.81494 14.0683 12.9569 17.2606 16.8329 17.2606C18.47 17.2606 19.9764 16.6909 21.1703 15.736C19.5379 14.4304 18.4895 12.4048 18.4895 10.1303Z" fill="#EB001B"/>
<path fill-rule="evenodd" clip-rule="evenodd" d="M32.3064 14.558V14.2812H32.2354L32.1535 14.4716L32.0716 14.2812H32.0007V14.558H32.0506V14.3491L32.1275 14.5292H32.1795L32.2565 14.3488V14.558H32.3064ZM31.8559 14.558V14.3285H31.9471V14.2817H31.7153V14.3285H31.8062V14.558H31.8559ZM32.5255 10.1396C32.5258 14.0773 29.3836 17.2698 25.5078 17.2698C23.8704 17.2698 22.3641 16.7002 21.1704 15.7455C22.8029 14.4399 23.8509 12.4141 23.8509 10.1396C23.8509 7.86526 22.8029 5.83947 21.1704 4.53384C22.3641 3.57917 23.8704 3.00928 25.5078 3.00928C29.3836 3.00928 32.5255 6.20153 32.5255 10.1396Z" fill="#F79E1B"/>
<defs>
<linearGradient id="paint0_linear_7360_2828" x1="1.5" y1="-3" x2="42" y2="24" gradientUnits="userSpaceOnUse">
<stop stop-color="#EB001B"/>
<stop offset="1" stop-color="#F79E1B"/>
</linearGradient>
</defs>
</svg>
