<svg width="27" height="30" viewBox="0 0 27 30" fill="none" xmlns="http://www.w3.org/2000/svg">
<path d="M14 0.5C9.0376 0.5 5 4.5376 5 9.5C5 12.4609 6.4624 15.2319 8.91162 16.9121C9.81298 17.5318 10.368 18.4966 10.477 19.5993C9.90805 19.8125 9.5 20.3575 9.5 21V22C9.5 22.3856 9.65027 22.734 9.89013 23C9.65027 23.266 9.5 23.6144 9.5 24V25C9.5 25.6615 9.93323 26.2179 10.5287 26.4168C10.7426 28.1257 12.244 29.5 14 29.5C14.5307 29.5 15.038 29.3838 15.5087 29.1548C16.0722 28.8807 15.6574 27.9727 15.0713 28.2554C14.7378 28.418 14.3774 28.5 14 28.5C12.8157 28.5 11.7921 27.6251 11.553 26.5H16.4475C16.407 26.6971 16.3445 26.8885 16.2554 27.0711C15.982 27.632 16.8743 28.0824 17.1548 27.5088C17.3232 27.1626 17.4294 26.7963 17.4745 26.4158C18.0683 26.216 18.5 25.6604 18.5 25V24C18.5 23.6144 18.3497 23.266 18.1099 23C18.3497 22.734 18.5 22.3856 18.5 22V21C18.5 20.1728 17.8272 19.5 17 19.5H14.5V15.7089C14.5 15.7089 18.916 11.3491 18.9199 11.3457C20.3589 9.89649 20.3589 7.53809 18.9199 6.08887C18.2222 5.38672 17.2935 5 16.3047 5C15.4565 5 14.6523 5.28467 14 5.81006C13.3481 5.28467 12.5439 5 11.6953 5C10.7065 5 9.77783 5.38672 9.08008 6.08886C7.64111 7.53808 7.64111 9.89648 9.08398 11.3491L13.5 15.7089V19.5H11.4711C11.3338 18.1037 10.6274 16.8784 9.47754 16.0879C7.3003 14.5938 6 12.1313 6 9.5C6 5.08886 9.58886 1.5 14 1.5C18.4111 1.5 22 5.08886 22 9.5C22 12.1313 20.6997 14.5938 18.522 16.0879C17.8873 16.5239 17.3712 17.1064 17.0304 17.7718C16.7442 18.3305 17.6265 18.8035 17.9199 18.228C18.1855 17.7095 18.5898 17.2549 19.0879 16.9121C21.5376 15.2319 23 12.4609 23 9.5C23 4.5376 18.9624 0.5 14 0.5ZM9.79004 10.6406C8.73681 9.58008 8.73681 7.85449 9.79004 6.79394C10.2983 6.28174 10.9746 6 11.6953 6C12.4155 6 13.0918 6.28174 13.5996 6.79297C13.8332 7.02909 14.1597 7.03415 14.3999 6.79394C14.9082 6.28174 15.5845 6 16.3047 6C17.0254 6 17.7017 6.28174 18.21 6.79394C19.2627 7.854 19.2632 9.57812 18.2119 10.6392L14 14.7974L9.79004 10.6406ZM10.5 24C10.5 23.7241 10.7241 23.5 11 23.5H11.5C12.1411 23.5 12.1486 22.5 11.5 22.5H11C10.7241 22.5 10.5 22.2759 10.5 22V21C10.5 20.7241 10.7241 20.5 11 20.5H17C17.2759 20.5 17.5 20.7241 17.5 21V22C17.5 22.2759 17.2759 22.5 17 22.5C17 22.5 13.5176 22.5 13.5001 22.5C12.8621 22.5 12.8507 23.5 13.5 23.5H17C17.2759 23.5 17.5 23.7241 17.5 24V25C17.5 25.2759 17.2759 25.5 17 25.5H11C10.7241 25.5 10.5 25.2759 10.5 25V24Z" fill="#170707"/>
<path d="M16.3808 8.00587C16.868 8.12572 17.1817 8.76851 16.8375 9.17805C16.4336 9.65855 17.1883 10.3151 17.603 9.82173C17.9901 9.36119 18.0577 8.77671 17.8943 8.25807C17.7131 7.68278 17.2477 7.18852 16.6192 7.03422C15.994 6.88072 15.7521 7.85124 16.3808 8.00587Z" fill="#170707"/>
<path d="M26.1219 6.40917C26.7337 6.22683 26.4576 5.26708 25.8367 5.45116C25.8367 5.45116 23.9252 6.0208 23.9197 6.02245C23.3108 6.20394 23.5868 7.16524 24.2049 6.98046C24.2049 6.98046 26.1169 6.41064 26.1219 6.40917Z" fill="#170707"/>
<path d="M24.8464 2.40316C24.7116 2.19256 24.4481 2.06627 24.1859 2.23778C24.1859 2.23778 22.5194 3.32848 22.5125 3.33297C21.9822 3.68004 22.5201 4.52276 23.0604 4.16991C23.0604 4.16991 24.725 3.08037 24.7337 3.0747C24.9872 2.90917 24.9813 2.61394 24.8464 2.40316Z" fill="#170707"/>
<path d="M26.5 9.00196C26.5 9.00196 24.507 9.00146 24.5 9.00146C23.8606 9.00131 23.8516 10.0015 24.5 10.0015C24.5 10.0015 26.496 10.002 26.5 10.002C27.1336 10.0021 27.149 9.00196 26.5 9.00196Z" fill="#170707"/>
<path d="M4.04329 6.02247C4.04329 6.02247 2.13152 5.45258 2.12679 5.45118C1.51345 5.26835 1.22112 6.2248 1.84065 6.40919C1.84065 6.40919 3.75194 6.97892 3.75716 6.98048C4.37426 7.16441 4.66234 6.2067 4.04329 6.02247Z" fill="#170707"/>
<path d="M5.45064 3.333C5.45064 3.333 3.78222 2.2413 3.77681 2.23779C3.23766 1.885 2.68846 2.72045 3.22896 3.0747C3.22896 3.0747 4.89418 4.16427 4.90276 4.16989C5.42562 4.51202 5.98091 3.6805 5.45064 3.333Z" fill="#170707"/>
<path d="M3.46326 9.00146C3.46326 9.00146 1.46649 9.00196 1.46326 9.00196C0.827549 9.00211 0.815464 10.002 1.46326 10.002C1.46326 10.002 3.45657 10.0015 3.46323 10.0015C4.10666 10.0013 4.10873 9.00146 3.46326 9.00146Z" fill="#170707"/>
</svg>
