<svg width="41" height="24" viewBox="0 0 41 24" fill="none" xmlns="http://www.w3.org/2000/svg">
<rect x="0.709814" y="0.4" width="39.2" height="23.2" rx="3.6" stroke="#003087" stroke-width="0.8"/>
<path d="M10.8491 8.91278C10.4731 8.65424 9.98232 8.52466 9.3769 8.52466H7.03303C6.84744 8.52466 6.7449 8.61748 6.72542 8.8029L5.77325 14.7796C5.76336 14.8383 5.77804 14.892 5.81718 14.9408C5.85609 14.9898 5.90503 15.0141 5.96364 15.0141H7.07696C7.27223 15.0141 7.37956 14.9215 7.39926 14.7358L7.6629 13.1245C7.67253 13.0464 7.70687 12.9829 7.76549 12.934C7.82405 12.8852 7.89731 12.8532 7.9852 12.8386C8.0731 12.8241 8.15598 12.8168 8.23425 12.8168C8.31229 12.8168 8.40503 12.8218 8.51262 12.8315C8.61995 12.8412 8.68837 12.846 8.7177 12.846C9.55752 12.846 10.2167 12.6093 10.6953 12.1356C11.1737 11.662 11.4132 11.0052 11.4132 10.1652C11.4132 9.58904 11.225 9.17154 10.8491 8.9126V8.91278ZM9.64063 10.7074C9.59164 11.0493 9.46484 11.2738 9.25976 11.3813C9.05464 11.4889 8.76167 11.5423 8.38085 11.5423L7.8974 11.557L8.14649 9.98952C8.16592 9.88219 8.22937 9.82846 8.33688 9.82846H8.6153C9.00575 9.82846 9.28913 9.88474 9.46493 9.99686C9.64063 10.1092 9.69924 10.3462 9.64063 10.7074Z" fill="#003087"/>
<path d="M35.5841 8.52441H34.5002C34.3925 8.52441 34.3291 8.57815 34.3097 8.68556L33.3575 14.7796L33.3428 14.8089C33.3428 14.858 33.3623 14.9041 33.4015 14.9481C33.4403 14.992 33.4894 15.014 33.5479 15.014H34.5149C34.7002 15.014 34.8027 14.9214 34.8225 14.7357L35.7747 8.74418V8.72962C35.7746 8.59292 35.7109 8.52455 35.5841 8.52455V8.52441Z" fill="#009CDE"/>
<path d="M22.488 10.8833C22.488 10.8346 22.4684 10.7881 22.4295 10.7442C22.3903 10.7003 22.3463 10.6782 22.2976 10.6782H21.1697C21.062 10.6782 20.9742 10.7273 20.9059 10.8247L19.3531 13.1101L18.7086 10.9127C18.6595 10.7565 18.5522 10.6782 18.3863 10.6782H17.2875C17.2386 10.6782 17.1946 10.7003 17.1558 10.7442C17.1166 10.7881 17.0972 10.8346 17.0972 10.8833C17.0972 10.903 17.1924 11.191 17.3828 11.7476C17.5732 12.3044 17.7783 12.905 17.9981 13.5496C18.2178 14.1941 18.3325 14.5361 18.3423 14.5749C17.5414 15.6688 17.1411 16.2548 17.1411 16.3328C17.1411 16.4599 17.2046 16.5233 17.3316 16.5233H18.4595C18.567 16.5233 18.6548 16.4746 18.7233 16.3768L22.4588 10.9857C22.4782 10.9664 22.488 10.9323 22.488 10.8833V10.8833Z" fill="#003087"/>
<path d="M32.9914 10.6783H31.8781C31.7412 10.6783 31.6585 10.8394 31.6292 11.1617C31.375 10.7713 30.9114 10.5757 30.2374 10.5757C29.5342 10.5757 28.936 10.8394 28.4429 11.3668C27.9496 11.8942 27.7031 12.5145 27.7031 13.2273C27.7031 13.8036 27.8715 14.2626 28.2084 14.6043C28.5453 14.9463 28.997 15.117 29.5636 15.117C29.8467 15.117 30.1348 15.0583 30.4278 14.9412C30.7208 14.824 30.9501 14.6678 31.1164 14.4724C31.1164 14.4822 31.1065 14.5261 31.0871 14.6042C31.0674 14.6824 31.0578 14.7412 31.0578 14.78C31.0578 14.9364 31.1211 15.0143 31.2483 15.0143H32.2592C32.4444 15.0143 32.552 14.9217 32.5812 14.736L33.1819 10.9126C33.1915 10.854 33.1769 10.8003 33.138 10.7514C33.0988 10.7028 33.05 10.6783 32.9914 10.6783ZM31.0798 13.5642C30.8307 13.8084 30.5304 13.9304 30.1789 13.9304C29.8955 13.9304 29.6662 13.8524 29.4903 13.6961C29.3144 13.5401 29.2266 13.3252 29.2266 13.0515C29.2266 12.6904 29.3487 12.385 29.5929 12.136C29.8367 11.8869 30.1398 11.7624 30.5011 11.7624C30.7743 11.7624 31.0014 11.843 31.1822 12.004C31.3628 12.1652 31.4534 12.3875 31.4534 12.6707C31.4533 13.0222 31.3288 13.3202 31.0798 13.5642Z" fill="#009CDE"/>
<path d="M16.3499 10.6783H15.2366C15.0997 10.6783 15.0168 10.8394 14.9875 11.1617C14.7238 10.7713 14.2599 10.5757 13.5958 10.5757C12.8927 10.5757 12.2944 10.8394 11.8013 11.3668C11.308 11.8942 11.0615 12.5145 11.0615 13.2273C11.0615 13.8036 11.23 14.2626 11.567 14.6043C11.9039 14.9463 12.3555 15.117 12.922 15.117C13.1953 15.117 13.4787 15.0583 13.7716 14.9412C14.0646 14.824 14.299 14.6678 14.4748 14.4724C14.4356 14.5896 14.4162 14.6922 14.4162 14.78C14.4162 14.9364 14.4796 15.0143 14.6066 15.0143H15.6174C15.8028 15.0143 15.9104 14.9217 15.9397 14.736L16.5403 10.9126C16.5499 10.854 16.5353 10.8003 16.4963 10.7514C16.4573 10.7028 16.4085 10.6783 16.3499 10.6783ZM14.4382 13.5714C14.1891 13.811 13.8838 13.9304 13.5227 13.9304C13.2393 13.9304 13.0122 13.8524 12.8414 13.6961C12.6704 13.5401 12.585 13.3252 12.585 13.0515C12.585 12.6904 12.7071 12.385 12.9513 12.136C13.1953 11.8869 13.4981 11.7624 13.8596 11.7624C14.1329 11.7624 14.3599 11.843 14.5408 12.0041C14.7213 12.1652 14.8118 12.3875 14.8118 12.6707C14.8118 13.032 14.6872 13.3324 14.4382 13.5714Z" fill="#003087"/>
<path d="M27.4908 8.91278C27.1148 8.65424 26.6241 8.52466 26.0186 8.52466H23.6893C23.4939 8.52466 23.3864 8.61748 23.3671 8.8029L22.4149 14.7796C22.405 14.8384 22.4196 14.8921 22.4588 14.9409C22.4975 14.9898 22.5466 15.0141 22.6052 15.0141H23.8064C23.9236 15.0141 24.0017 14.9507 24.0408 14.8237L24.3046 13.1245C24.3142 13.0464 24.3484 12.9829 24.4071 12.934C24.4657 12.8852 24.5389 12.8533 24.6269 12.8386C24.7147 12.8241 24.7975 12.8168 24.8759 12.8168C24.9539 12.8168 25.0467 12.8218 25.1541 12.8315C25.2616 12.8412 25.3302 12.846 25.3592 12.846C26.1992 12.846 26.8583 12.6093 27.3369 12.1356C27.8155 11.662 28.0547 11.0052 28.0547 10.1652C28.0548 9.58908 27.8667 9.17159 27.4908 8.91264V8.91278ZM25.9893 11.3226C25.7744 11.4691 25.4521 11.5423 25.0225 11.5423L24.5536 11.557L24.8027 9.98952C24.822 9.88219 24.8855 9.82846 24.9931 9.82846H25.2567C25.4715 9.82846 25.6424 9.83822 25.7695 9.85769C25.8963 9.8774 26.0186 9.93825 26.1358 10.0408C26.253 10.1434 26.3116 10.2923 26.3116 10.4877C26.3116 10.8978 26.204 11.1761 25.9893 11.3226Z" fill="#009CDE"/>
</svg>
