<svg width="24" height="24" viewBox="0 0 24 24" fill="none" xmlns="http://www.w3.org/2000/svg">
<rect x="0.5" y="0.5" width="23" height="23" rx="11.5" fill="#FBFBFB"/>
<rect x="0.5" y="0.5" width="23" height="23" rx="11.5" stroke="#F27D7D"/>
<path d="M11.5218 6.30217C11.6755 5.99088 11.7523 5.83523 11.8566 5.7855C11.9473 5.74224 12.0528 5.74224 12.1435 5.7855C12.2478 5.83523 12.3246 5.99088 12.4783 6.30217L13.9361 9.25548C13.9814 9.34738 14.0041 9.39333 14.0373 9.42901C14.0666 9.4606 14.1018 9.48619 14.1409 9.50437C14.1851 9.52491 14.2358 9.53232 14.3372 9.54714L17.598 10.0238C17.9414 10.074 18.1131 10.099 18.1926 10.1829C18.2617 10.2559 18.2942 10.3562 18.281 10.4558C18.2659 10.5703 18.1416 10.6914 17.893 10.9335L15.5343 13.2309C15.4608 13.3025 15.424 13.3383 15.4003 13.3809C15.3793 13.4187 15.3658 13.4601 15.3607 13.503C15.3548 13.5514 15.3635 13.602 15.3808 13.7031L15.9373 16.948C15.996 17.2903 16.0254 17.4614 15.9702 17.563C15.9222 17.6513 15.8369 17.7133 15.7381 17.7316C15.6245 17.7527 15.4708 17.6719 15.1634 17.5102L12.2483 15.9772C12.1575 15.9294 12.112 15.9055 12.0642 15.8961C12.0218 15.8878 11.9783 15.8878 11.9359 15.8961C11.8881 15.9055 11.8426 15.9294 11.7518 15.9772L8.83666 17.5102C8.52932 17.6719 8.37565 17.7527 8.26202 17.7316C8.16316 17.7133 8.07786 17.6513 8.02987 17.563C7.97471 17.4614 8.00406 17.2903 8.06276 16.948L8.6193 13.7031C8.63665 13.602 8.64532 13.5514 8.63945 13.503C8.63426 13.4601 8.62078 13.4187 8.59978 13.3809C8.57606 13.3383 8.53929 13.3025 8.46576 13.2309L6.10708 10.9335C5.85848 10.6914 5.73418 10.5703 5.71906 10.4558C5.7059 10.3562 5.73841 10.2559 5.80754 10.1829C5.887 10.099 6.05869 10.074 6.40207 10.0238L9.66291 9.54714C9.76432 9.53232 9.81503 9.52491 9.85919 9.50437C9.89828 9.48619 9.93348 9.4606 9.96283 9.42901C9.99598 9.39333 10.0187 9.34738 10.064 9.25548L11.5218 6.30217Z" stroke="#F27D7D" stroke-linecap="round" stroke-linejoin="round"/>
</svg>
