<svg width="20" height="20" viewBox="0 0 20 20" fill="none" xmlns="http://www.w3.org/2000/svg">
<path d="M1.66675 1.66675H2.75522C2.96023 1.66675 3.06274 1.66675 3.14523 1.70445C3.21793 1.73767 3.27954 1.7911 3.32271 1.85837C3.37169 1.9347 3.38619 2.03618 3.41518 2.23913L3.80961 5.00008M3.80961 5.00008L4.68618 11.4429C4.79742 12.2605 4.85304 12.6693 5.0485 12.977C5.22073 13.2482 5.46765 13.4638 5.75954 13.5979C6.0908 13.7501 6.50337 13.7501 7.3285 13.7501H14.4601C15.2455 13.7501 15.6383 13.7501 15.9592 13.6088C16.2422 13.4842 16.485 13.2833 16.6603 13.0286C16.8592 12.7398 16.9327 12.354 17.0796 11.5824L18.1827 5.79149C18.2344 5.51992 18.2603 5.38414 18.2228 5.278C18.1899 5.18489 18.125 5.10649 18.0397 5.05676C17.9425 5.00008 17.8042 5.00008 17.5278 5.00008H3.80961ZM8.33341 17.5001C8.33341 17.9603 7.96032 18.3334 7.50008 18.3334C7.03984 18.3334 6.66675 17.9603 6.66675 17.5001C6.66675 17.0398 7.03984 16.6667 7.50008 16.6667C7.96032 16.6667 8.33341 17.0398 8.33341 17.5001ZM15.0001 17.5001C15.0001 17.9603 14.627 18.3334 14.1667 18.3334C13.7065 18.3334 13.3334 17.9603 13.3334 17.5001C13.3334 17.0398 13.7065 16.6667 14.1667 16.6667C14.627 16.6667 15.0001 17.0398 15.0001 17.5001Z" stroke="#170707" stroke-linecap="round" stroke-linejoin="round"/>
</svg>
