<svg width="38" height="24" viewBox="0 0 38 24" fill="none" xmlns="http://www.w3.org/2000/svg">
<path d="M1.92 0H35.52C36.5804 0 37.44 0.859632 37.44 1.92V22.08C37.44 23.1404 36.5804 24 35.52 24H1.92C0.859632 24 0 23.1404 0 22.08V1.92C0 0.859632 0.859632 0 1.92 0Z" fill="#1434CB"/>
<path d="M23.5113 6.86938C21.2632 6.86938 19.2542 8.03492 19.2542 10.1883C19.2542 12.6579 22.8173 12.8285 22.8173 14.0691C22.8173 14.5915 22.2187 15.0591 21.1966 15.0591C19.7459 15.0591 18.6617 14.4058 18.6617 14.4058L18.1977 16.5788C18.1977 16.5788 19.4467 17.1307 21.105 17.1307C23.5629 17.1307 25.4969 15.908 25.4969 13.7177C25.4969 11.1082 21.9191 10.9427 21.9191 9.79115C21.9191 9.3819 22.4104 8.93353 23.4296 8.93353C24.5797 8.93353 25.5179 9.40873 25.5179 9.40873L25.972 7.30993C25.972 7.30993 24.951 6.86938 23.5113 6.86938ZM2.9436 7.02778L2.88916 7.34459C2.88916 7.34459 3.83493 7.51772 4.68674 7.86313C5.78354 8.25913 5.86164 8.48972 6.04639 9.20579L8.05922 16.9674H10.7574L14.9143 7.02778H12.2223L9.55126 13.7858L8.46132 8.05738C8.36134 7.4018 7.85503 7.02778 7.2353 7.02778H2.9436ZM15.9968 7.02778L13.885 16.9674H16.4521L18.5565 7.02778H15.9968ZM30.3144 7.02778C29.6954 7.02778 29.3674 7.35932 29.1267 7.93859L25.3658 16.9674H28.0578L28.5786 15.4626H31.8583L32.175 16.9674H34.5504L32.4782 7.02778H30.3144ZM30.6645 9.71315L31.4625 13.443H29.3247L30.6645 9.71315Z" fill="#FBFBFB"/>
</svg>
